<?xml version='1.0'?>
<msm title='aligned performance' pulsesPerQuarter='720'>
    <global>
        <header/>
        <dated>
            <timeSignatureMap>
                <timeSignature date='0' numerator='2' denominator='2'/>
            </timeSignatureMap>
            <sectionMap>
                <section date='0' date.end='69840'/>
            </sectionMap>
        </dated>
    </global>
    <part name='part0' number='1' midi.channel='0' midi.port='0'>
        <header/>
        <dated>
            <programChangeMap>
                <programChange date='0' value='0'/>
            </programChangeMap>
            <score>
                <note xml:id='note-L23F2' date='0' pitchname='b' octave='3' accidentals='0' midi.pitch='59' duration='540' midi.onset='88.0455' midi.duration='0.8114999999999952' midi.velocity='39'/>
                <note xml:id='note-L24F2' date='540' pitchname='b' octave='4' accidentals='0' midi.pitch='71' duration='180' midi.onset='88.824' midi.duration='0.13949999999999818' midi.velocity='43'/>
                <note xml:id='note-L26F2' date='720' pitchname='b' octave='4' accidentals='0' midi.pitch='71' duration='2160' midi.onset='89.0925' midi.duration='1.9470000000000027' midi.velocity='46'/>
                <note xml:id='note-L32F2' date='2880' pitchname='c' octave='5' accidentals='0' midi.pitch='72' duration='720' midi.onset='90.9435' midi.duration='0.6735000000000042' midi.velocity='45'/>
                <note xml:id='note-L35F2' date='3600' pitchname='b' octave='4' accidentals='0' midi.pitch='71' duration='2160' midi.onset='91.5855' midi.duration='1.6710000000000065' midi.velocity='46'/>
                <note xml:id='note-L41F2' date='5760' pitchname='c' octave='5' accidentals='0' midi.pitch='72' duration='720' midi.onset='93.1785' midi.duration='0.6735000000000042' midi.velocity='54'/>
                <note xml:id='note-L44F2' date='6480' pitchname='b' octave='4' accidentals='0' midi.pitch='71' duration='2160' midi.onset='93.8025' midi.duration='1.495500000000007' midi.velocity='60'/>
                <note xml:id='note-L50F2' date='8640' pitchname='c' octave='5' accidentals='0' midi.pitch='72' duration='720' midi.onset='95.2215' midi.duration='0.6015000000000015' midi.velocity='48'/>
                <note xml:id='note-L54F2' date='9360' pitchname='b' octave='4' accidentals='0' midi.pitch='71' duration='2160' midi.onset='95.793' midi.duration='1.61399999999999' midi.velocity='49'/>
                <note xml:id='note-L60F2' date='11520' pitchname='b' octave='4' accidentals='-1' midi.pitch='70' duration='720' midi.onset='97.401' midi.duration='0.6990000000000123' midi.velocity='47'/>
                <note xml:id='note-L63F2' date='12240' pitchname='a' octave='4' accidentals='0' midi.pitch='69' duration='2160' midi.onset='98.1105' midi.duration='1.4415000000000049' midi.velocity='48'/>
                <note xml:id='note-L69F2' date='14400' pitchname='b' octave='4' accidentals='0' midi.pitch='71' duration='720' midi.onset='99.4845' midi.duration='0.5534999999999997' midi.velocity='43'/>
                <note xml:id='note-L72F2' date='15120' pitchname='a' octave='4' accidentals='0' midi.pitch='69' duration='2160' midi.onset='100.0215' midi.duration='1.394999999999996' midi.velocity='42'/>
                <note xml:id='note-L78F2' date='17280' pitchname='b' octave='4' accidentals='0' midi.pitch='71' duration='720' midi.onset='101.3415' midi.duration='0.5550000000000068' midi.velocity='54'/>
                <note xml:id='note-L81F2' date='18000' pitchname='a' octave='4' accidentals='0' midi.pitch='69' duration='2160' midi.onset='101.898' midi.duration='1.4190000000000111' midi.velocity='58'/>
                <note xml:id='note-L87F2' date='20160' pitchname='b' octave='4' accidentals='0' midi.pitch='71' duration='540' midi.onset='103.2705' midi.duration='0.6809999999999974' midi.velocity='52'/>
                <note xml:id='note-L89F2' date='20700' pitchname='a' octave='4' accidentals='0' midi.pitch='69' duration='180' midi.onset='103.8735' midi.duration='0.16499999999999204' midi.velocity='49'/>
                <note xml:id='note-L92F2' date='20880' pitchname='a' octave='4' accidentals='0' midi.pitch='69' duration='2160' midi.onset='104.1135' midi.duration='1.445999999999998' midi.velocity='51'/>
                <note xml:id='note-L98F2' date='23040' pitchname='g' octave='4' accidentals='1' midi.pitch='68' duration='720' midi.onset='105.504' midi.duration='0.4124999999999943' midi.velocity='54'/>
                <note xml:id='note-L103F2' date='24480' pitchname='a' octave='4' accidentals='0' midi.pitch='69' duration='360' midi.onset='106.68900000000001' midi.duration='0.4469999999999885' midi.velocity='60'/>
                <note xml:id='note-L104F2' date='24840' pitchname='b' octave='4' accidentals='0' midi.pitch='71' duration='360' midi.onset='107.0955' midi.duration='0.41549999999999443' midi.velocity='60'/>
                <note xml:id='note-L105F2' date='25200' pitchname='d' octave='5' accidentals='0' midi.pitch='74' duration='360' midi.onset='107.4345' midi.duration='0.4140000000000015' midi.velocity='60'/>
                <note xml:id='note-L106F2' date='25560' pitchname='c' octave='5' accidentals='0' midi.pitch='72' duration='360' midi.onset='107.7885' midi.duration='0.29999999999999716' midi.velocity='57'/>
                <note xml:id='note-L107F2' date='25920' pitchname='e' octave='4' accidentals='0' midi.pitch='64' duration='360' midi.onset='108.1005' midi.duration='0.22650000000000148' midi.velocity='47'/>
                <note xml:id='note-L108F2' date='26280' pitchname='a' octave='4' accidentals='0' midi.pitch='69' duration='360' midi.onset='108.2775' midi.duration='0.242999999999995' midi.velocity='59'/>
                <note xml:id='note-L110F2' date='26640' pitchname='f' octave='4' accidentals='1' midi.pitch='66' duration='2160' midi.onset='108.534' midi.duration='1.3709999999999951' midi.velocity='46'/>
                <note xml:id='note-L116F2' date='28800' pitchname='a' octave='4' accidentals='0' midi.pitch='69' duration='720' midi.onset='110.0685' midi.duration='0.5985000000000014' midi.velocity='60'/>
                <note xml:id='note-L119F2' date='29520' pitchname='f' octave='4' accidentals='1' midi.pitch='66' duration='2160' midi.onset='110.733' midi.duration='1.4145000000000039' midi.velocity='40'/>
                <note xml:id='note-L127F2' date='31680' pitchname='a' octave='4' accidentals='0' midi.pitch='69' duration='720' midi.onset='112.1925' midi.duration='0.8295000000000101' midi.velocity='54'/>
                <note xml:id='note-L131F2' date='32400' pitchname='g' octave='4' accidentals='0' midi.pitch='67' duration='360' midi.onset='113.019' midi.duration='0.49499999999999034' midi.velocity='53'/>
                <note xml:id='note-L132F2' date='32760' pitchname='f' octave='4' accidentals='1' midi.pitch='66' duration='360' midi.onset='113.4615' midi.duration='0.33899999999999864' midi.velocity='42'/>
                <note xml:id='note-L133F2' date='33120' pitchname='c' octave='4' accidentals='0' midi.pitch='60' duration='360' midi.onset='113.7495' midi.duration='0.3780000000000001' midi.velocity='40'/>
                <note xml:id='note-L134F2' date='33480' pitchname='b' octave='3' accidentals='0' midi.pitch='59' duration='360' midi.onset='114.0765' midi.duration='0.3930000000000007' midi.velocity='37'/>
                <note xml:id='note-L135F2' date='33840' pitchname='d' octave='4' accidentals='1' midi.pitch='63' duration='360' midi.onset='114.39150000000001' midi.duration='0.5204999999999984' midi.velocity='36'/>
                <note xml:id='note-L136F2' date='34200' pitchname='f' octave='4' accidentals='1' midi.pitch='66' duration='360' midi.onset='114.834' midi.duration='0.4230000000000018' midi.velocity='41'/>
                <note xml:id='note-L139F2' date='34560' pitchname='d' octave='5' accidentals='0' midi.pitch='74' duration='240' midi.onset='115.251' midi.duration='0.39000000000000057' midi.velocity='41'/>
                <note xml:id='note-L140F2' date='34800' pitchname='c' octave='5' accidentals='0' midi.pitch='72' duration='240' midi.onset='115.617' midi.duration='0.46049999999999613' midi.velocity='38'/>
                <note xml:id='note-L141F2' date='35040' pitchname='b' octave='4' accidentals='0' midi.pitch='71' duration='240' midi.onset='115.992' midi.duration='0.18299999999999272' midi.velocity='38'/>
                <note xml:id='note-L143F2' date='35280' pitchname='b' octave='4' accidentals='0' midi.pitch='71' duration='2160' midi.onset='116.265' midi.duration='1.636499999999998' midi.velocity='41'/>
                <note xml:id='note-L149F2' date='37440' pitchname='c' octave='5' accidentals='0' midi.pitch='72' duration='720' midi.onset='117.816' midi.duration='0.6269999999999953' midi.velocity='43'/>
                <note xml:id='note-L152F2' date='38160' pitchname='b' octave='4' accidentals='0' midi.pitch='71' duration='2160' midi.onset='118.41' midi.duration='1.524000000000001' midi.velocity='44'/>
                <note xml:id='note-L158F2' date='40320' pitchname='c' octave='5' accidentals='0' midi.pitch='72' duration='720' midi.onset='119.8485' midi.duration='0.6059999999999945' midi.velocity='57'/>
                <note xml:id='note-L161F2' date='41040' pitchname='b' octave='4' accidentals='0' midi.pitch='71' duration='2160' midi.onset='120.396' midi.duration='1.4669999999999987' midi.velocity='57'/>
                <note xml:id='note-L167F2' date='43200' pitchname='c' octave='5' accidentals='0' midi.pitch='72' duration='720' midi.onset='121.779' midi.duration='0.6195000000000022' midi.velocity='47'/>
                <note xml:id='note-L171F2' date='43920' pitchname='b' octave='4' accidentals='0' midi.pitch='71' duration='540' midi.onset='122.3475' midi.duration='0.6210000000000093' midi.velocity='53'/>
                <note xml:id='note-L173F2' date='44460' pitchname='a' octave='4' accidentals='1' midi.pitch='70' duration='180' midi.onset='122.919' midi.duration='0.12150000000001171' midi.velocity='47'/>
                <note xml:id='note-L175F2' date='44640' pitchname='a' octave='4' accidentals='1' midi.pitch='71' duration='720' midi.onset='123.258' midi.duration='0.1980000000000075' midi.velocity='50'/>
                <note xml:id='note-L178F2' date='45360' pitchname='g' octave='5' accidentals='0' midi.pitch='79' duration='720' midi.onset='123.81750000000001' midi.duration='0.8144999999999953' midi.velocity='61'/>
                <note xml:id='note-L180F2' date='46080' pitchname='f' octave='5' accidentals='1' midi.pitch='76' duration='540' midi.onset='125.09100000000001' midi.duration='0.35249999999999204' midi.velocity='60'/>
                <note xml:id='note-L182F2' date='46620' pitchname='e' octave='5' accidentals='0' midi.pitch='76' duration='180' midi.onset='125.5155' midi.duration='0.46049999999999613' midi.velocity='65'/>
                <note xml:id='note-L186F2' date='46800' pitchname='e' octave='5' accidentals='0' midi.pitch='undefined' duration='360'/>
                <note xml:id='note-L187F2' date='47160' pitchname='d' octave='5' accidentals='1' midi.pitch='75' duration='360' midi.onset='125.9865' midi.duration='0.2609999999999957' midi.velocity='70'/>
                <note xml:id='note-L188F2' date='47520' pitchname='c' octave='6' accidentals='0' midi.pitch='84' duration='360' midi.onset='126.258' midi.duration='0.24600000000000932' midi.velocity='75'/>
                <note xml:id='note-L190F2' date='47880' pitchname='d' octave='5' accidentals='1' midi.pitch='75' duration='360' midi.onset='126.4995' midi.duration='0.19350000000000023' midi.velocity='73'/>
                <note xml:id='note-L191F2' date='48240' pitchname='d' octave='5' accidentals='1' midi.pitch='75' duration='360' midi.onset='126.777' midi.duration='0.29999999999999716' midi.velocity='70'/>
                <note xml:id='note-L192F2' date='48600' pitchname='e' octave='5' accidentals='0' midi.pitch='76' duration='360' midi.onset='127.104' midi.duration='0.30750000000000455' midi.velocity='74'/>
                <note xml:id='note-L193F2' date='48960' pitchname='g' octave='5' accidentals='0' midi.pitch='79' duration='360' midi.onset='127.3665' midi.duration='0.3795000000000073' midi.velocity='77'/>
                <note xml:id='note-L194F2' date='49320' pitchname='b' octave='4' accidentals='0' midi.pitch='71' duration='360' midi.onset='127.7175' midi.duration='0.3060000000000116' midi.velocity='74'/>
                <note xml:id='note-L196F2' date='49680' pitchname='d' octave='5' accidentals='0' midi.pitch='74' duration='360' midi.onset='127.9905' midi.duration='0.4170000000000016' midi.velocity='71'/>
                <note xml:id='note-L197F2' date='50040' pitchname='c' octave='5' accidentals='0' midi.pitch='72' duration='360' midi.onset='128.3475' midi.duration='0.41100000000000136' midi.velocity='67'/>
                <note xml:id='note-L201F2' date='50400' pitchname='e' octave='5' accidentals='0' midi.pitch='76' duration='240' midi.onset='128.715' midi.duration='0.34950000000000614' midi.velocity='70'/>
                <note xml:id='note-L202F2' date='50640' pitchname='e' octave='4' accidentals='0' midi.pitch='64' duration='240' midi.onset='129.01500000000001' midi.duration='0.27899999999999636' midi.velocity='49'/>
                <note xml:id='note-L205F2' date='50880' pitchname='a' octave='4' accidentals='0' midi.pitch='undefined' duration='240'/>
                <note xml:id='note-L206F2' date='51120' pitchname='f' octave='4' accidentals='1' midi.pitch='66' duration='1080' midi.onset='129.615' midi.duration='0.9464999999999861' midi.velocity='44'/>
                <note xml:id='note-L209F2' date='52200' pitchname='a' octave='4' accidentals='0' midi.pitch='69' duration='360' midi.onset='130.5105' midi.duration='0.3269999999999982' midi.velocity='61'/>
                <note xml:id='note-L212F2' date='52560' pitchname='f' octave='4' accidentals='1' midi.pitch='66' duration='2160' midi.onset='130.8675' midi.duration='1.3979999999999961' midi.velocity='39'/>
                <note xml:id='note-L219F2' date='54720' pitchname='a' octave='4' accidentals='0' midi.pitch='71' duration='720' midi.onset='132.234' midi.duration='0.12899999999999068' midi.velocity='48'/>
                <note xml:id='note-L223F2' date='55440' pitchname='f' octave='4' accidentals='1' midi.pitch='66' duration='2160' midi.onset='133.029' midi.duration='2.3985000000000127' midi.velocity='42'/>
                <note xml:id='note-L231F2' date='58140' pitchname='e' octave='4' accidentals='0' midi.pitch='64' duration='180' midi.onset='135.423' midi.duration='0.132000000000005' midi.velocity='38'/>
                <note xml:id='note-L233F2' date='58320' pitchname='e' octave='4' accidentals='0' midi.pitch='52' duration='2160' midi.onset='135.6375' midi.duration='0.3165000000000191' midi.velocity='36'/>
                <note xml:id='note-L240F2' date='60480' pitchname='f' octave='4' accidentals='1' midi.pitch='66' duration='720' midi.onset='137.6445' midi.duration='0.7680000000000007' midi.velocity='39'/>
                <note xml:id='note-L243F2' date='61200' pitchname='e' octave='4' accidentals='0' midi.pitch='64' duration='2160' midi.onset='138.4425' midi.duration='2.058000000000021' midi.velocity='43'/>
                <note xml:id='note-L249F2' date='63360' pitchname='f' octave='4' accidentals='1' midi.pitch='66' duration='720' midi.onset='140.52' midi.duration='1.4399999999999977' midi.velocity='39'/>
                <note xml:id='note-L252F2' date='64080' pitchname='e' octave='4' accidentals='0' midi.pitch='64' duration='1440' midi.onset='141.918' midi.duration='0.694500000000005' midi.velocity='38'/>
                <note xml:id='note-L256F2S1' date='66960' pitchname='e' octave='4' accidentals='0' midi.pitch='undefined' duration='1440'/>
                <note xml:id='note-L256F2S2' date='66960' pitchname='b' octave='3' accidentals='0' midi.pitch='undefined' duration='1440'/>
                <note xml:id='note-L256F2S3' date='66960' pitchname='f' octave='3' accidentals='1' midi.pitch='undefined' duration='1440'/>
                <note xml:id='note-L256F2S4' date='66960' pitchname='e' octave='3' accidentals='0' midi.pitch='52' duration='1440' midi.onset='144.3855' midi.duration='0.39449999999999363' midi.velocity='33'/>
                <note xml:id='note-L257F2S1' date='68400' pitchname='d' octave='4' accidentals='1' midi.pitch='63' duration='1440' midi.onset='147.59550000000002' midi.duration='0.3254999999999768' midi.velocity='37'/>
                <note xml:id='note-L257F2S2' date='68400' pitchname='b' octave='3' accidentals='0' midi.pitch='59' duration='1440' midi.onset='147.297' midi.duration='0.4124999999999943' midi.velocity='34'/>
                <note xml:id='note-L257F2S3' date='68400' pitchname='f' octave='3' accidentals='1' midi.pitch='54' duration='1440' midi.onset='147.0825' midi.duration='0.3810000000000002' midi.velocity='33'/>
                <note xml:id='note-L257F2S4' date='68400' pitchname='d' octave='3' accidentals='1' midi.pitch='51' duration='1440' midi.onset='146.877' midi.duration='0.3914999999999793' midi.velocity='33'/>
                <note xml:id='note-L259F2S1' date='69840' pitchname='e' octave='4' accidentals='0' midi.pitch='64' duration='2880' midi.onset='144.7365' midi.duration='0.3509999999999991' midi.velocity='36'/>
                <note xml:id='note-L259F2S2' date='69840' pitchname='b' octave='3' accidentals='0' midi.pitch='59' duration='2880' midi.onset='144.633' midi.duration='0.3509999999999991' midi.velocity='34'/>
                <note xml:id='note-L259F2S3' date='69840' pitchname='g' octave='3' accidentals='0' midi.pitch='55' duration='2880' midi.onset='150.1785' midi.duration='0.39749999999997954' midi.velocity='33'/>
                <note xml:id='note-L259F2S4' date='69840' pitchname='e' octave='3' accidentals='0' midi.pitch='52' duration='2880' midi.onset='149.85' midi.duration='0.45150000000001' midi.velocity='33'/>
            </score>
        </dated>
    </part>
    <part name='part1' number='2' midi.channel='1' midi.port='0'>
        <header/>
        <dated>
            <programChangeMap>
                <programChange date='0' value='0'/>
            </programChangeMap>
            <score>
                <note xml:id='note-L26F1S1' date='720' pitchname='e' octave='4' accidentals='0' midi.pitch='64' duration='360' midi.onset='89.10900000000001' midi.duration='0.3539999999999992' midi.velocity='34'/>
                <note xml:id='note-L26F1S2' date='720' pitchname='b' octave='3' accidentals='0' midi.pitch='59' duration='360' midi.onset='89.10900000000001' midi.duration='0.34499999999999886' midi.velocity='34'/>
                <note xml:id='note-L26F1S3' date='720' pitchname='g' octave='3' accidentals='0' midi.pitch='55' duration='360' midi.onset='89.1105' midi.duration='0.35999999999999943' midi.velocity='34'/>
                <note xml:id='note-L27F1S1' date='1080' pitchname='e' octave='4' accidentals='0' midi.pitch='64' duration='360' midi.onset='89.5545' midi.duration='0.2219999999999942' midi.velocity='33'/>
                <note xml:id='note-L27F1S2' date='1080' pitchname='b' octave='3' accidentals='0' midi.pitch='59' duration='360' midi.onset='89.5635' midi.duration='0.2219999999999942' midi.velocity='33'/>
                <note xml:id='note-L27F1S3' date='1080' pitchname='g' octave='3' accidentals='0' midi.pitch='55' duration='360' midi.onset='89.52' midi.duration='0.24750000000000227' midi.velocity='33'/>
                <note xml:id='note-L28F1S1' date='1440' pitchname='e' octave='4' accidentals='0' midi.pitch='64' duration='360' midi.onset='89.8665' midi.duration='0.1560000000000059' midi.velocity='33'/>
                <note xml:id='note-L28F1S2' date='1440' pitchname='b' octave='3' accidentals='0' midi.pitch='59' duration='360' midi.onset='89.8755' midi.duration='0.16500000000000625' midi.velocity='33'/>
                <note xml:id='note-L28F1S3' date='1440' pitchname='g' octave='3' accidentals='0' midi.pitch='55' duration='360' midi.onset='89.8755' midi.duration='0.14700000000000557' midi.velocity='33'/>
                <note xml:id='note-L29F1S1' date='1800' pitchname='e' octave='4' accidentals='0' midi.pitch='64' duration='360' midi.onset='90.159' midi.duration='0.17399999999999238' midi.velocity='33'/>
                <note xml:id='note-L29F1S2' date='1800' pitchname='b' octave='3' accidentals='0' midi.pitch='59' duration='360' midi.onset='90.1485' midi.duration='0.19200000000000728' midi.velocity='33'/>
                <note xml:id='note-L29F1S3' date='1800' pitchname='g' octave='3' accidentals='0' midi.pitch='55' duration='360' midi.onset='90.1575' midi.duration='0.15749999999999886' midi.velocity='33'/>
                <note xml:id='note-L30F1S1' date='2160' pitchname='e' octave='4' accidentals='0' midi.pitch='64' duration='360' midi.onset='90.4485' midi.duration='0.1664999999999992' midi.velocity='34'/>
                <note xml:id='note-L30F1S2' date='2160' pitchname='b' octave='3' accidentals='0' midi.pitch='59' duration='360' midi.onset='90.432' midi.duration='0.1664999999999992' midi.velocity='34'/>
                <note xml:id='note-L30F1S3' date='2160' pitchname='g' octave='3' accidentals='0' midi.pitch='55' duration='360' midi.onset='90.423' midi.duration='0.15749999999999886' midi.velocity='33'/>
                <note xml:id='note-L31F1S1' date='2520' pitchname='e' octave='4' accidentals='0' midi.pitch='64' duration='360' midi.onset='90.672' midi.duration='0.17249999999999943' midi.velocity='36'/>
                <note xml:id='note-L31F1S2' date='2520' pitchname='b' octave='3' accidentals='0' midi.pitch='59' duration='360' midi.onset='90.672' midi.duration='0.1905000000000001' midi.velocity='36'/>
                <note xml:id='note-L31F1S3' date='2520' pitchname='g' octave='3' accidentals='0' midi.pitch='55' duration='360' midi.onset='90.663' midi.duration='0.18300000000000693' midi.velocity='36'/>
                <note xml:id='note-L32F1S1' date='2880' pitchname='e' octave='4' accidentals='0' midi.pitch='64' duration='360' midi.onset='90.9525' midi.duration='0.16500000000000625' midi.velocity='38'/>
                <note xml:id='note-L32F1S2' date='2880' pitchname='b' octave='3' accidentals='0' midi.pitch='59' duration='360' midi.onset='90.96300000000001' midi.duration='0.18299999999999272' midi.velocity='38'/>
                <note xml:id='note-L32F1S3' date='2880' pitchname='g' octave='3' accidentals='0' midi.pitch='55' duration='360' midi.onset='90.936' midi.duration='0.1559999999999917' midi.velocity='39'/>
                <note xml:id='note-L33F1S1' date='3240' pitchname='e' octave='4' accidentals='0' midi.pitch='64' duration='360' midi.onset='91.2165' midi.duration='0.16800000000000637' midi.velocity='36'/>
                <note xml:id='note-L33F1S2' date='3240' pitchname='b' octave='3' accidentals='0' midi.pitch='59' duration='360' midi.onset='91.227' midi.duration='0.15899999999999181' midi.velocity='36'/>
                <note xml:id='note-L33F1S3' date='3240' pitchname='g' octave='3' accidentals='0' midi.pitch='55' duration='360' midi.onset='91.209' midi.duration='0.15000000000000568' midi.velocity='36'/>
                <note xml:id='note-L35F1S1' date='3600' pitchname='e' octave='4' accidentals='0' midi.pitch='64' duration='360' midi.onset='91.5945' midi.duration='0.1530000000000058' midi.velocity='38'/>
                <note xml:id='note-L35F1S2' date='3600' pitchname='a' octave='3' accidentals='0' midi.pitch='57' duration='360' midi.onset='91.5855' midi.duration='0.19350000000000023' midi.velocity='38'/>
                <note xml:id='note-L35F1S3' date='3600' pitchname='f' octave='3' accidentals='1' midi.pitch='54' duration='360' midi.onset='91.5945' midi.duration='0.1844999999999999' midi.velocity='38'/>
                <note xml:id='note-L36F1S1' date='3960' pitchname='e' octave='4' accidentals='0' midi.pitch='64' duration='360' midi.onset='91.869' midi.duration='0.15749999999999886' midi.velocity='37'/>
                <note xml:id='note-L36F1S2' date='3960' pitchname='a' octave='3' accidentals='0' midi.pitch='57' duration='360' midi.onset='91.869' midi.duration='0.15000000000000568' midi.velocity='37'/>
                <note xml:id='note-L36F1S3' date='3960' pitchname='f' octave='3' accidentals='1' midi.pitch='54' duration='360' midi.onset='91.8615' midi.duration='0.14849999999999852' midi.velocity='37'/>
                <note xml:id='note-L37F1S1' date='4320' pitchname='e' octave='4' accidentals='0' midi.pitch='64' duration='360' midi.onset='92.142' midi.duration='0.1110000000000042' midi.velocity='34'/>
                <note xml:id='note-L37F1S2' date='4320' pitchname='a' octave='3' accidentals='0' midi.pitch='57' duration='360' midi.onset='92.1165' midi.duration='0.13049999999999784' midi.velocity='34'/>
                <note xml:id='note-L37F1S3' date='4320' pitchname='f' octave='3' accidentals='1' midi.pitch='54' duration='360' midi.onset='92.118' midi.duration='0.12150000000001171' midi.velocity='34'/>
                <note xml:id='note-L38F1S1' date='4680' pitchname='e' octave='4' accidentals='0' midi.pitch='64' duration='360' midi.onset='92.355' midi.duration='0.14699999999999136' midi.velocity='35'/>
                <note xml:id='note-L38F1S2' date='4680' pitchname='a' octave='3' accidentals='0' midi.pitch='57' duration='360' midi.onset='92.373' midi.duration='0.1214999999999975' midi.velocity='35'/>
                <note xml:id='note-L38F1S3' date='4680' pitchname='f' octave='3' accidentals='1' midi.pitch='54' duration='360' midi.onset='92.364' midi.duration='0.1319999999999908' midi.velocity='35'/>
                <note xml:id='note-L39F1S1' date='5040' pitchname='e' octave='4' accidentals='-1' midi.pitch='63' duration='360' midi.onset='92.62950000000001' midi.duration='0.22650000000000148' midi.velocity='38'/>
                <note xml:id='note-L39F1S2' date='5040' pitchname='a' octave='3' accidentals='0' midi.pitch='57' duration='360' midi.onset='92.613' midi.duration='0.24450000000000216' midi.velocity='38'/>
                <note xml:id='note-L39F1S3' date='5040' pitchname='f' octave='3' accidentals='1' midi.pitch='54' duration='360' midi.onset='92.5515' midi.duration='0.2985000000000042' midi.velocity='37'/>
                <note xml:id='note-L40F1S1' date='5400' pitchname='e' octave='4' accidentals='-1' midi.pitch='63' duration='360' midi.onset='92.9115' midi.duration='0.13949999999999818' midi.velocity='37'/>
                <note xml:id='note-L40F1S2' date='5400' pitchname='a' octave='3' accidentals='0' midi.pitch='57' duration='360' midi.onset='92.9205' midi.duration='0.1214999999999975' midi.velocity='37'/>
                <note xml:id='note-L40F1S3' date='5400' pitchname='f' octave='3' accidentals='1' midi.pitch='54' duration='360' midi.onset='92.895' midi.duration='0.16500000000000625' midi.velocity='37'/>
                <note xml:id='note-L41F1S1' date='5760' pitchname='e' octave='4' accidentals='-1' midi.pitch='63' duration='360' midi.onset='93.159' midi.duration='0.16049999999999898' midi.velocity='39'/>
                <note xml:id='note-L41F1S2' date='5760' pitchname='a' octave='3' accidentals='0' midi.pitch='57' duration='360' midi.onset='93.1605' midi.duration='0.16949999999999932' midi.velocity='39'/>
                <note xml:id='note-L41F1S3' date='5760' pitchname='f' octave='3' accidentals='1' midi.pitch='54' duration='360' midi.onset='93.144' midi.duration='0.1844999999999999' midi.velocity='40'/>
                <note xml:id='note-L42F1S1' date='6120' pitchname='e' octave='4' accidentals='-1' midi.pitch='63' duration='360' midi.onset='93.4455' midi.duration='0.17549999999999955' midi.velocity='37'/>
                <note xml:id='note-L42F1S2' date='6120' pitchname='a' octave='3' accidentals='0' midi.pitch='57' duration='360' midi.onset='93.447' midi.duration='0.1664999999999992' midi.velocity='37'/>
                <note xml:id='note-L42F1S3' date='6120' pitchname='f' octave='3' accidentals='1' midi.pitch='54' duration='360' midi.onset='93.4305' midi.duration='0.19200000000000728' midi.velocity='37'/>
                <note xml:id='note-L44F1S1' date='6480' pitchname='e' octave='4' accidentals='-1' midi.pitch='63' duration='360' midi.onset='93.79950000000001' midi.duration='0.25499999999999545' midi.velocity='41'/>
                <note xml:id='note-L44F1S2' date='6480' pitchname='a' octave='3' accidentals='0' midi.pitch='57' duration='360' midi.onset='93.81' midi.duration='0.2189999999999941' midi.velocity='41'/>
                <note xml:id='note-L44F1S3' date='6480' pitchname='f' octave='3' accidentals='0' midi.pitch='53' duration='360' midi.onset='93.801' midi.duration='0.23550000000000182' midi.velocity='41'/>
                <note xml:id='note-L45F1S1' date='6840' pitchname='e' octave='4' accidentals='-1' midi.pitch='63' duration='360' midi.onset='94.098' midi.duration='0.1214999999999975' midi.velocity='38'/>
                <note xml:id='note-L45F1S2' date='6840' pitchname='a' octave='3' accidentals='0' midi.pitch='57' duration='360' midi.onset='94.083' midi.duration='0.13800000000000523' midi.velocity='38'/>
                <note xml:id='note-L45F1S3' date='6840' pitchname='f' octave='3' accidentals='0' midi.pitch='53' duration='360' midi.onset='94.074' midi.duration='0.14700000000000557' midi.velocity='38'/>
                <note xml:id='note-L46F1S1' date='7200' pitchname='e' octave='4' accidentals='-1' midi.pitch='63' duration='360' midi.onset='94.32000000000001' midi.duration='0.14099999999999113' midi.velocity='36'/>
                <note xml:id='note-L46F1S2' date='7200' pitchname='a' octave='3' accidentals='0' midi.pitch='57' duration='360' midi.onset='94.3305' midi.duration='0.11249999999999716' midi.velocity='36'/>
                <note xml:id='note-L46F1S3' date='7200' pitchname='f' octave='3' accidentals='0' midi.pitch='53' duration='360' midi.onset='94.3215' midi.duration='0.12300000000000466' midi.velocity='36'/>
                <note xml:id='note-L47F1S1' date='7560' pitchname='e' octave='4' accidentals='-1' midi.pitch='63' duration='360' midi.onset='94.551' midi.duration='0.12300000000000466' midi.velocity='33'/>
                <note xml:id='note-L47F1S2' date='7560' pitchname='a' octave='3' accidentals='0' midi.pitch='57' duration='360' midi.onset='94.536' midi.duration='0.12000000000000455' midi.velocity='33'/>
                <note xml:id='note-L47F1S3' date='7560' pitchname='f' octave='3' accidentals='0' midi.pitch='53' duration='360' midi.onset='94.536' midi.duration='0.1214999999999975' midi.velocity='33'/>
                <note xml:id='note-L48F1S1' date='7920' pitchname='d' octave='4' accidentals='0' midi.pitch='62' duration='360' midi.onset='94.7385' midi.duration='0.12300000000000466' midi.velocity='33'/>
                <note xml:id='note-L48F1S2' date='7920' pitchname='a' octave='3' accidentals='0' midi.pitch='57' duration='360' midi.onset='94.74' midi.duration='0.10200000000000387' midi.velocity='33'/>
                <note xml:id='note-L48F1S3' date='7920' pitchname='f' octave='3' accidentals='0' midi.pitch='53' duration='360' midi.onset='94.74' midi.duration='0.13050000000001205' midi.velocity='33'/>
                <note xml:id='note-L49F1S1' date='8280' pitchname='d' octave='4' accidentals='0' midi.pitch='62' duration='360' midi.onset='94.962' midi.duration='0.132000000000005' midi.velocity='33'/>
                <note xml:id='note-L49F1S2' date='8280' pitchname='a' octave='3' accidentals='0' midi.pitch='57' duration='360' midi.onset='94.962' midi.duration='0.1214999999999975' midi.velocity='33'/>
                <note xml:id='note-L49F1S3' date='8280' pitchname='f' octave='3' accidentals='0' midi.pitch='53' duration='360' midi.onset='94.971' midi.duration='0.11400000000000432' midi.velocity='33'/>
                <note xml:id='note-L50F1S1' date='8640' pitchname='d' octave='4' accidentals='0' midi.pitch='62' duration='360' midi.onset='95.2395' midi.duration='0.19499999999999318' midi.velocity='35'/>
                <note xml:id='note-L50F1S2' date='8640' pitchname='g' octave='3' accidentals='1' midi.pitch='56' duration='360' midi.onset='95.232' midi.duration='0.20250000000000057' midi.velocity='35'/>
                <note xml:id='note-L50F1S3' date='8640' pitchname='f' octave='3' accidentals='0' midi.pitch='53' duration='360' midi.onset='95.223' midi.duration='0.21300000000000807' midi.velocity='35'/>
                <note xml:id='note-L51F1S1' date='9000' pitchname='d' octave='4' accidentals='0' midi.pitch='62' duration='360' midi.onset='95.4975' midi.duration='0.1664999999999992' midi.velocity='33'/>
                <note xml:id='note-L51F1S2' date='9000' pitchname='g' octave='3' accidentals='1' midi.pitch='56' duration='360' midi.onset='95.499' midi.duration='0.16650000000001342' midi.velocity='33'/>
                <note xml:id='note-L51F1S3' date='9000' pitchname='f' octave='3' accidentals='0' midi.pitch='53' duration='360' midi.onset='95.49' midi.duration='0.16650000000001342' midi.velocity='33'/>
                <note xml:id='note-L54F1S1' date='9360' pitchname='d' octave='4' accidentals='0' midi.pitch='62' duration='360' midi.onset='95.7915' midi.duration='0.25200000000000955' midi.velocity='36'/>
                <note xml:id='note-L54F1S2' date='9360' pitchname='g' octave='3' accidentals='1' midi.pitch='56' duration='360' midi.onset='95.7645' midi.duration='0.2610000000000099' midi.velocity='35'/>
                <note xml:id='note-L54F1S3' date='9360' pitchname='e' octave='3' accidentals='0' midi.pitch='52' duration='360' midi.onset='95.784' midi.duration='0.22499999999999432' midi.velocity='36'/>
                <note xml:id='note-L55F1S1' date='9720' pitchname='d' octave='4' accidentals='0' midi.pitch='62' duration='360' midi.onset='96.099' midi.duration='0.14849999999999852' midi.velocity='33'/>
                <note xml:id='note-L55F1S2' date='9720' pitchname='g' octave='3' accidentals='1' midi.pitch='56' duration='360' midi.onset='96.081' midi.duration='0.1664999999999992' midi.velocity='33'/>
                <note xml:id='note-L55F1S3' date='9720' pitchname='e' octave='3' accidentals='0' midi.pitch='52' duration='360' midi.onset='96.0645' midi.duration='0.1740000000000066' midi.velocity='34'/>
                <note xml:id='note-L56F1S1' date='10080' pitchname='d' octave='4' accidentals='0' midi.pitch='62' duration='360' midi.onset='96.3375' midi.duration='0.13949999999999818' midi.velocity='33'/>
                <note xml:id='note-L56F1S2' date='10080' pitchname='g' octave='3' accidentals='1' midi.pitch='56' duration='360' midi.onset='96.33' midi.duration='0.14700000000000557' midi.velocity='33'/>
                <note xml:id='note-L56F1S3' date='10080' pitchname='e' octave='3' accidentals='0' midi.pitch='52' duration='360' midi.onset='96.3225' midi.duration='0.1529999999999916' midi.velocity='33'/>
                <note xml:id='note-L57F1S1' date='10440' pitchname='d' octave='4' accidentals='0' midi.pitch='62' duration='360' midi.onset='96.5835' midi.duration='0.12300000000000466' midi.velocity='33'/>
                <note xml:id='note-L57F1S2' date='10440' pitchname='g' octave='3' accidentals='1' midi.pitch='56' duration='360' midi.onset='96.57600000000001' midi.duration='0.1319999999999908' midi.velocity='33'/>
                <note xml:id='note-L57F1S3' date='10440' pitchname='e' octave='3' accidentals='0' midi.pitch='52' duration='360' midi.onset='96.56700000000001' midi.duration='0.11399999999999011' midi.velocity='33'/>
                <note xml:id='note-L58F1S1' date='10800' pitchname='d' octave='4' accidentals='0' midi.pitch='62' duration='360' midi.onset='96.79650000000001' midi.duration='0.20999999999999375' midi.velocity='33'/>
                <note xml:id='note-L58F1S2' date='10800' pitchname='g' octave='3' accidentals='0' midi.pitch='55' duration='360' midi.onset='96.8055' midi.duration='0.19200000000000728' midi.velocity='33'/>
                <note xml:id='note-L58F1S3' date='10800' pitchname='e' octave='3' accidentals='0' midi.pitch='52' duration='360' midi.onset='96.771' midi.duration='0.23699999999999477' midi.velocity='33'/>
                <note xml:id='note-L59F1S1' date='11160' pitchname='d' octave='4' accidentals='0' midi.pitch='62' duration='360' midi.onset='97.0635' midi.duration='0.14699999999999136' midi.velocity='33'/>
                <note xml:id='note-L59F1S2' date='11160' pitchname='g' octave='3' accidentals='0' midi.pitch='55' duration='360' midi.onset='97.0545' midi.duration='0.14849999999999852' midi.velocity='33'/>
                <note xml:id='note-L59F1S3' date='11160' pitchname='e' octave='3' accidentals='0' midi.pitch='52' duration='360' midi.onset='97.0635' midi.duration='0.13949999999999818' midi.velocity='33'/>
                <note xml:id='note-L60F1S1' date='11520' pitchname='c' octave='4' accidentals='1' midi.pitch='61' duration='360' midi.onset='97.419' midi.duration='0.24750000000000227' midi.velocity='35'/>
                <note xml:id='note-L60F1S2' date='11520' pitchname='g' octave='3' accidentals='0' midi.pitch='55' duration='360' midi.onset='97.428' midi.duration='0.22500000000000853' midi.velocity='35'/>
                <note xml:id='note-L60F1S3' date='11520' pitchname='e' octave='3' accidentals='0' midi.pitch='52' duration='360' midi.onset='97.4115' midi.duration='0.2639999999999958' midi.velocity='35'/>
                <note xml:id='note-L61F1S1' date='11880' pitchname='c' octave='4' accidentals='1' midi.pitch='61' duration='360' midi.onset='97.767' midi.duration='0.18300000000000693' midi.velocity='33'/>
                <note xml:id='note-L61F1S2' date='11880' pitchname='g' octave='3' accidentals='0' midi.pitch='55' duration='360' midi.onset='97.74000000000001' midi.duration='0.2009999999999934' midi.velocity='33'/>
                <note xml:id='note-L61F1S3' date='11880' pitchname='e' octave='3' accidentals='0' midi.pitch='52' duration='360' midi.onset='97.758' midi.duration='0.18300000000000693' midi.velocity='33'/>
                <note xml:id='note-L63F1S1' date='12240' pitchname='c' octave='4' accidentals='0' midi.pitch='60' duration='360' midi.onset='98.1015' midi.duration='0.19200000000000728' midi.velocity='36'/>
                <note xml:id='note-L63F1S2' date='12240' pitchname='g' octave='3' accidentals='0' midi.pitch='55' duration='360' midi.onset='98.07600000000001' midi.duration='0.2009999999999934' midi.velocity='35'/>
                <note xml:id='note-L63F1S3' date='12240' pitchname='e' octave='3' accidentals='0' midi.pitch='52' duration='360' midi.onset='98.08500000000001' midi.duration='0.20999999999999375' midi.velocity='35'/>
                <note xml:id='note-L64F1S1' date='12600' pitchname='c' octave='4' accidentals='0' midi.pitch='60' duration='360' midi.onset='98.403' midi.duration='0.12299999999999045' midi.velocity='33'/>
                <note xml:id='note-L64F1S2' date='12600' pitchname='g' octave='3' accidentals='0' midi.pitch='55' duration='360' midi.onset='98.3775' midi.duration='0.1214999999999975' midi.velocity='33'/>
                <note xml:id='note-L64F1S3' date='12600' pitchname='e' octave='3' accidentals='0' midi.pitch='52' duration='360' midi.onset='98.385' midi.duration='0.12299999999999045' midi.velocity='33'/>
                <note xml:id='note-L65F1S1' date='12960' pitchname='c' octave='4' accidentals='0' midi.pitch='60' duration='360' midi.onset='98.6085' midi.duration='0.14999999999999147' midi.velocity='33'/>
                <note xml:id='note-L65F1S2' date='12960' pitchname='g' octave='3' accidentals='0' midi.pitch='55' duration='360' midi.onset='98.6175' midi.duration='0.11549999999999727' midi.velocity='33'/>
                <note xml:id='note-L65F1S3' date='12960' pitchname='e' octave='3' accidentals='0' midi.pitch='52' duration='360' midi.onset='98.6085' midi.duration='0.1424999999999983' midi.velocity='33'/>
                <note xml:id='note-L66F1S1' date='13320' pitchname='c' octave='4' accidentals='0' midi.pitch='60' duration='360' midi.onset='98.83200000000001' midi.duration='0.1214999999999975' midi.velocity='33'/>
                <note xml:id='note-L66F1S2' date='13320' pitchname='g' octave='3' accidentals='0' midi.pitch='55' duration='360' midi.onset='98.83200000000001' midi.duration='0.11249999999999716' midi.velocity='33'/>
                <note xml:id='note-L66F1S3' date='13320' pitchname='e' octave='3' accidentals='0' midi.pitch='52' duration='360' midi.onset='98.8155' midi.duration='0.1290000000000049' midi.velocity='33'/>
                <note xml:id='note-L67F1S1' date='13680' pitchname='c' octave='4' accidentals='0' midi.pitch='60' duration='360' midi.onset='99.069' midi.duration='0.15749999999999886' midi.velocity='33'/>
                <note xml:id='note-L67F1S2' date='13680' pitchname='f' octave='3' accidentals='1' midi.pitch='54' duration='360' midi.onset='99.05250000000001' midi.duration='0.17399999999999238' midi.velocity='33'/>
                <note xml:id='note-L67F1S3' date='13680' pitchname='e' octave='3' accidentals='0' midi.pitch='52' duration='360' midi.onset='99.054' midi.duration='0.16500000000000625' midi.velocity='33'/>
                <note xml:id='note-L68F1S1' date='14040' pitchname='c' octave='4' accidentals='0' midi.pitch='60' duration='360' midi.onset='99.291' midi.duration='0.12150000000001171' midi.velocity='33'/>
                <note xml:id='note-L68F1S2' date='14040' pitchname='f' octave='3' accidentals='1' midi.pitch='54' duration='360' midi.onset='99.2835' midi.duration='0.11249999999999716' midi.velocity='33'/>
                <note xml:id='note-L68F1S3' date='14040' pitchname='e' octave='3' accidentals='0' midi.pitch='52' duration='360' midi.onset='99.2835' midi.duration='0.12000000000000455' midi.velocity='33'/>
                <note xml:id='note-L69F1S1' date='14400' pitchname='c' octave='4' accidentals='0' midi.pitch='60' duration='360' midi.onset='99.519' midi.duration='0.1559999999999917' midi.velocity='35'/>
                <note xml:id='note-L69F1S2' date='14400' pitchname='f' octave='3' accidentals='1' midi.pitch='54' duration='360' midi.onset='99.5205' midi.duration='0.1560000000000059' midi.velocity='35'/>
                <note xml:id='note-L69F1S3' date='14400' pitchname='e' octave='3' accidentals='0' midi.pitch='52' duration='360' midi.onset='99.5115' midi.duration='0.1560000000000059' midi.velocity='35'/>
                <note xml:id='note-L70F1S1' date='14760' pitchname='c' octave='4' accidentals='0' midi.pitch='60' duration='360' midi.onset='99.801' midi.duration='0.1214999999999975' midi.velocity='33'/>
                <note xml:id='note-L70F1S2' date='14760' pitchname='f' octave='3' accidentals='1' midi.pitch='54' duration='360' midi.onset='99.79350000000001' midi.duration='0.13949999999999818' midi.velocity='33'/>
                <note xml:id='note-L70F1S3' date='14760' pitchname='e' octave='3' accidentals='0' midi.pitch='52' duration='360' midi.onset='99.78450000000001' midi.duration='0.1214999999999975' midi.velocity='33'/>
                <note xml:id='note-L72F1S1' date='15120' pitchname='c' octave='4' accidentals='0' midi.pitch='60' duration='360' midi.onset='100.0215' midi.duration='0.14700000000000557' midi.velocity='33'/>
                <note xml:id='note-L72F1S2' date='15120' pitchname='f' octave='3' accidentals='1' midi.pitch='54' duration='360' midi.onset='100.005' midi.duration='0.16500000000000625' midi.velocity='33'/>
                <note xml:id='note-L72F1S3' date='15120' pitchname='e' octave='3' accidentals='0' midi.pitch='52' duration='360' midi.onset='99.9885' midi.duration='0.17249999999999943' midi.velocity='33'/>
                <note xml:id='note-L73F1S1' date='15480' pitchname='c' octave='4' accidentals='0' midi.pitch='60' duration='360' midi.onset='100.2525' midi.duration='0.15749999999999886' midi.velocity='33'/>
                <note xml:id='note-L73F1S2' date='15480' pitchname='f' octave='3' accidentals='1' midi.pitch='54' duration='360' midi.onset='100.2615' midi.duration='0.15000000000000568' midi.velocity='33'/>
                <note xml:id='note-L73F1S3' date='15480' pitchname='e' octave='3' accidentals='0' midi.pitch='52' duration='360' midi.onset='100.254' midi.duration='0.13949999999999818' midi.velocity='33'/>
                <note xml:id='note-L74F1S1' date='15840' pitchname='c' octave='4' accidentals='0' midi.pitch='60' duration='360' midi.onset='100.494' midi.duration='0.11400000000000432' midi.velocity='34'/>
                <note xml:id='note-L74F1S2' date='15840' pitchname='f' octave='3' accidentals='1' midi.pitch='54' duration='360' midi.onset='100.4865' midi.duration='0.1319999999999908' midi.velocity='34'/>
                <note xml:id='note-L74F1S3' date='15840' pitchname='e' octave='3' accidentals='0' midi.pitch='52' duration='360' midi.onset='100.4685' midi.duration='0.1214999999999975' midi.velocity='34'/>
                <note xml:id='note-L75F1S1' date='16200' pitchname='c' octave='4' accidentals='0' midi.pitch='60' duration='360' midi.onset='100.6995' midi.duration='0.10349999999999682' midi.velocity='37'/>
                <note xml:id='note-L75F1S2' date='16200' pitchname='f' octave='3' accidentals='1' midi.pitch='54' duration='360' midi.onset='100.6815' midi.duration='0.11400000000000432' midi.velocity='36'/>
                <note xml:id='note-L75F1S3' date='16200' pitchname='e' octave='3' accidentals='0' midi.pitch='52' duration='360' midi.onset='100.674' midi.duration='0.1214999999999975' midi.velocity='36'/>
                <note xml:id='note-L76F1S1' date='16560' pitchname='c' octave='4' accidentals='0' midi.pitch='60' duration='360' midi.onset='100.88850000000001' midi.duration='0.15749999999999886' midi.velocity='39'/>
                <note xml:id='note-L76F1S2' date='16560' pitchname='f' octave='3' accidentals='1' midi.pitch='54' duration='360' midi.onset='100.88850000000001' midi.duration='0.17549999999999955' midi.velocity='39'/>
                <note xml:id='note-L76F1S3' date='16560' pitchname='d' octave='3' accidentals='1' midi.pitch='51' duration='360' midi.onset='100.87950000000001' midi.duration='0.1844999999999999' midi.velocity='38'/>
                <note xml:id='note-L77F1S1' date='16920' pitchname='c' octave='4' accidentals='0' midi.pitch='60' duration='360' midi.onset='101.10900000000001' midi.duration='0.13949999999999818' midi.velocity='38'/>
                <note xml:id='note-L77F1S2' date='16920' pitchname='f' octave='3' accidentals='1' midi.pitch='54' duration='360' midi.onset='101.1195' midi.duration='0.1214999999999975' midi.velocity='38'/>
                <note xml:id='note-L77F1S3' date='16920' pitchname='d' octave='3' accidentals='1' midi.pitch='51' duration='360' midi.onset='101.1195' midi.duration='0.11249999999999716' midi.velocity='38'/>
                <note xml:id='note-L78F1S1' date='17280' pitchname='c' octave='4' accidentals='0' midi.pitch='60' duration='360' midi.onset='101.358' midi.duration='0.1214999999999975' midi.velocity='38'/>
                <note xml:id='note-L78F1S2' date='17280' pitchname='f' octave='3' accidentals='1' midi.pitch='54' duration='360' midi.onset='101.367' midi.duration='0.11400000000000432' midi.velocity='38'/>
                <note xml:id='note-L78F1S3' date='17280' pitchname='d' octave='3' accidentals='1' midi.pitch='51' duration='360' midi.onset='101.349' midi.duration='0.12300000000000466' midi.velocity='38'/>
                <note xml:id='note-L79F1S1' date='17640' pitchname='c' octave='4' accidentals='0' midi.pitch='60' duration='360' midi.onset='101.598' midi.duration='0.1290000000000049' midi.velocity='40'/>
                <note xml:id='note-L79F1S2' date='17640' pitchname='f' octave='3' accidentals='1' midi.pitch='54' duration='360' midi.onset='101.607' midi.duration='0.1214999999999975' midi.velocity='41'/>
                <note xml:id='note-L79F1S3' date='17640' pitchname='d' octave='3' accidentals='1' midi.pitch='51' duration='360' midi.onset='101.598' midi.duration='0.12300000000000466' midi.velocity='40'/>
                <note xml:id='note-L81F1S1' date='18000' pitchname='c' octave='4' accidentals='0' midi.pitch='60' duration='360' midi.onset='101.907' midi.duration='0.15749999999999886' midi.velocity='44'/>
                <note xml:id='note-L81F1S2' date='18000' pitchname='f' octave='3' accidentals='1' midi.pitch='54' duration='360' midi.onset='101.907' midi.duration='0.14850000000001273' midi.velocity='44'/>
                <note xml:id='note-L81F1S3' date='18000' pitchname='d' octave='3' accidentals='0' midi.pitch='50' duration='360' midi.onset='101.898' midi.duration='0.1395000000000124' midi.velocity='44'/>
                <note xml:id='note-L82F1S1' date='18360' pitchname='c' octave='4' accidentals='0' midi.pitch='60' duration='360' midi.onset='102.165' midi.duration='0.15449999999999875' midi.velocity='41'/>
                <note xml:id='note-L82F1S2' date='18360' pitchname='f' octave='3' accidentals='1' midi.pitch='54' duration='360' midi.onset='102.165' midi.duration='0.13799999999999102' midi.velocity='41'/>
                <note xml:id='note-L82F1S3' date='18360' pitchname='d' octave='3' accidentals='0' midi.pitch='50' duration='360' midi.onset='102.165' midi.duration='0.1214999999999975' midi.velocity='41'/>
                <note xml:id='note-L83F1S1' date='18720' pitchname='c' octave='4' accidentals='0' midi.pitch='60' duration='360' midi.onset='102.38550000000001' midi.duration='0.12899999999999068' midi.velocity='39'/>
                <note xml:id='note-L83F1S2' date='18720' pitchname='f' octave='3' accidentals='1' midi.pitch='54' duration='360' midi.onset='102.396' midi.duration='0.10200000000000387' midi.velocity='39'/>
                <note xml:id='note-L83F1S3' date='18720' pitchname='d' octave='3' accidentals='0' midi.pitch='50' duration='360' midi.onset='102.396' midi.duration='0.1214999999999975' midi.velocity='39'/>
                <note xml:id='note-L84F1S1' date='19080' pitchname='c' octave='4' accidentals='0' midi.pitch='60' duration='360' midi.onset='102.5985' midi.duration='0.12300000000000466' midi.velocity='37'/>
                <note xml:id='note-L84F1S2' date='19080' pitchname='f' octave='3' accidentals='1' midi.pitch='54' duration='360' midi.onset='102.5715' midi.duration='0.12300000000000466' midi.velocity='37'/>
                <note xml:id='note-L84F1S3' date='19080' pitchname='d' octave='3' accidentals='0' midi.pitch='50' duration='360' midi.onset='102.5985' midi.duration='0.11549999999999727' midi.velocity='37'/>
                <note xml:id='note-L85F1S1' date='19440' pitchname='c' octave='4' accidentals='0' midi.pitch='60' duration='360' midi.onset='102.804' midi.duration='0.12000000000000455' midi.velocity='34'/>
                <note xml:id='note-L85F1S2' date='19440' pitchname='f' octave='3' accidentals='1' midi.pitch='54' duration='360' midi.onset='102.813' midi.duration='0.1214999999999975' midi.velocity='34'/>
                <note xml:id='note-L85F1S3' date='19440' pitchname='d' octave='3' accidentals='0' midi.pitch='50' duration='360' midi.onset='102.8145' midi.duration='0.12000000000000455' midi.velocity='34'/>
                <note xml:id='note-L86F1S1' date='19800' pitchname='c' octave='4' accidentals='0' midi.pitch='60' duration='360' midi.onset='103.032' midi.duration='0.13050000000001205' midi.velocity='33'/>
                <note xml:id='note-L86F1S2' date='19800' pitchname='f' octave='3' accidentals='1' midi.pitch='54' duration='360' midi.onset='103.0245' midi.duration='0.13049999999999784' midi.velocity='33'/>
                <note xml:id='note-L86F1S3' date='19800' pitchname='d' octave='3' accidentals='0' midi.pitch='50' duration='360' midi.onset='103.017' midi.duration='0.13800000000000523' midi.velocity='33'/>
                <note xml:id='note-L87F1S1' date='20160' pitchname='c' octave='4' accidentals='0' midi.pitch='60' duration='360' midi.onset='103.269' midi.duration='0.24899999999999523' midi.velocity='33'/>
                <note xml:id='note-L87F1S2' date='20160' pitchname='f' octave='3' accidentals='1' midi.pitch='54' duration='360' midi.onset='103.2795' midi.duration='0.2400000000000091' midi.velocity='33'/>
                <note xml:id='note-L87F1S3' date='20160' pitchname='d' octave='3' accidentals='0' midi.pitch='50' duration='360' midi.onset='103.281' midi.duration='0.25499999999999545' midi.velocity='33'/>
                <note xml:id='note-L88F1S1' date='20520' pitchname='c' octave='4' accidentals='0' midi.pitch='60' duration='360' midi.onset='103.6455' midi.duration='0.21000000000000796' midi.velocity='33'/>
                <note xml:id='note-L88F1S2' date='20520' pitchname='f' octave='3' accidentals='1' midi.pitch='54' duration='360' midi.onset='103.6455' midi.duration='0.2715000000000032' midi.velocity='33'/>
                <note xml:id='note-L88F1S3' date='20520' pitchname='d' octave='3' accidentals='0' midi.pitch='50' duration='360' midi.onset='103.647' midi.duration='0.20999999999999375' midi.velocity='33'/>
                <note xml:id='note-L92F1S1' date='20880' pitchname='c' octave='4' accidentals='0' midi.pitch='60' duration='360' midi.onset='104.08800000000001' midi.duration='0.22049999999998704' midi.velocity='35'/>
                <note xml:id='note-L92F1S2' date='20880' pitchname='f' octave='3' accidentals='0' midi.pitch='53' duration='360' midi.onset='104.0985' midi.duration='0.20250000000000057' midi.velocity='35'/>
                <note xml:id='note-L92F1S3' date='20880' pitchname='d' octave='3' accidentals='0' midi.pitch='50' duration='360' midi.onset='104.0985' midi.duration='0.2115000000000009' midi.velocity='35'/>
                <note xml:id='note-L93F1S1' date='21240' pitchname='c' octave='4' accidentals='0' midi.pitch='60' duration='360' midi.onset='104.4105' midi.duration='0.17549999999999955' midi.velocity='33'/>
                <note xml:id='note-L93F1S2' date='21240' pitchname='f' octave='3' accidentals='0' midi.pitch='53' duration='360' midi.onset='104.43' midi.duration='0.15749999999999886' midi.velocity='33'/>
                <note xml:id='note-L93F1S3' date='21240' pitchname='d' octave='3' accidentals='0' midi.pitch='50' duration='360' midi.onset='104.43' midi.duration='0.1214999999999975' midi.velocity='33'/>
                <note xml:id='note-L94F1S1' date='21600' pitchname='c' octave='4' accidentals='0' midi.pitch='60' duration='360' midi.onset='104.67750000000001' midi.duration='0.10349999999999682' midi.velocity='33'/>
                <note xml:id='note-L94F1S2' date='21600' pitchname='f' octave='3' accidentals='0' midi.pitch='53' duration='360' midi.onset='104.66850000000001' midi.duration='0.11549999999999727' midi.velocity='33'/>
                <note xml:id='note-L94F1S3' date='21600' pitchname='d' octave='3' accidentals='0' midi.pitch='50' duration='360' midi.onset='104.661' midi.duration='0.1214999999999975' midi.velocity='33'/>
                <note xml:id='note-L95F1S1' date='21960' pitchname='c' octave='4' accidentals='0' midi.pitch='60' duration='360' midi.onset='104.88' midi.duration='0.09600000000000364' midi.velocity='34'/>
                <note xml:id='note-L95F1S2' date='21960' pitchname='f' octave='3' accidentals='0' midi.pitch='53' duration='360' midi.onset='104.8635' midi.duration='0.11249999999999716' midi.velocity='34'/>
                <note xml:id='note-L95F1S3' date='21960' pitchname='d' octave='3' accidentals='0' midi.pitch='50' duration='360' midi.onset='104.8725' midi.duration='0.10500000000000398' midi.velocity='34'/>
                <note xml:id='note-L96F1S1' date='22320' pitchname='b' octave='3' accidentals='0' midi.pitch='59' duration='360' midi.onset='105.057' midi.duration='0.16500000000000625' midi.velocity='36'/>
                <note xml:id='note-L96F1S2' date='22320' pitchname='f' octave='3' accidentals='0' midi.pitch='53' duration='360' midi.onset='105.0585' midi.duration='0.1635000000000133' midi.velocity='36'/>
                <note xml:id='note-L96F1S3' date='22320' pitchname='d' octave='3' accidentals='0' midi.pitch='50' duration='360' midi.onset='105.0585' midi.duration='0.15450000000001296' midi.velocity='36'/>
                <note xml:id='note-L97F1S1' date='22680' pitchname='b' octave='3' accidentals='0' midi.pitch='59' duration='360' midi.onset='105.276' midi.duration='0.11250000000001137' midi.velocity='35'/>
                <note xml:id='note-L97F1S2' date='22680' pitchname='f' octave='3' accidentals='0' midi.pitch='53' duration='360' midi.onset='105.285' midi.duration='0.11400000000000432' midi.velocity='35'/>
                <note xml:id='note-L97F1S3' date='22680' pitchname='d' octave='3' accidentals='0' midi.pitch='50' duration='360' midi.onset='105.2685' midi.duration='0.1214999999999975' midi.velocity='35'/>
                <note xml:id='note-L98F1S1' date='23040' pitchname='b' octave='3' accidentals='0' midi.pitch='59' duration='360' midi.onset='105.5145' midi.duration='0.14849999999999852' midi.velocity='33'/>
                <note xml:id='note-L98F1S2' date='23040' pitchname='f' octave='3' accidentals='0' midi.pitch='53' duration='360' midi.onset='105.498' midi.duration='0.1559999999999917' midi.velocity='33'/>
                <note xml:id='note-L98F1S3' date='23040' pitchname='d' octave='3' accidentals='0' midi.pitch='50' duration='360' midi.onset='105.507' midi.duration='0.14699999999999136' midi.velocity='33'/>
                <note xml:id='note-L99F1S1' date='23400' pitchname='b' octave='3' accidentals='0' midi.pitch='59' duration='360' midi.onset='105.79650000000001' midi.duration='0.11999999999999034' midi.velocity='34'/>
                <note xml:id='note-L99F1S2' date='23400' pitchname='f' octave='3' accidentals='0' midi.pitch='53' duration='360' midi.onset='105.79650000000001' midi.duration='0.13049999999999784' midi.velocity='34'/>
                <note xml:id='note-L99F1S3' date='23400' pitchname='d' octave='3' accidentals='0' midi.pitch='50' duration='360' midi.onset='105.77850000000001' midi.duration='0.14999999999999147' midi.velocity='34'/>
                <note xml:id='note-L101F1S1' date='23760' pitchname='b' octave='3' accidentals='0' midi.pitch='68' duration='360' midi.onset='106.14150000000001' midi.duration='0.5985000000000014' midi.velocity='55'/>
                <note xml:id='note-L101F1S2' date='23760' pitchname='e' octave='3' accidentals='0' midi.pitch='52' duration='360' midi.onset='106.15350000000001' midi.duration='0.18599999999999284' midi.velocity='38'/>
                <note xml:id='note-L101F1S3' date='23760' pitchname='c' octave='3' accidentals='0' midi.pitch='48' duration='360' midi.onset='106.15350000000001' midi.duration='0.16799999999999216' midi.velocity='38'/>
                <note xml:id='note-L102F1S1' date='24120' pitchname='b' octave='3' accidentals='0' midi.pitch='59' duration='360' midi.onset='106.431' midi.duration='0.15900000000000603' midi.velocity='36'/>
                <note xml:id='note-L102F1S2' date='24120' pitchname='e' octave='3' accidentals='0' midi.pitch='52' duration='360' midi.onset='106.4055' midi.duration='0.15899999999999181' midi.velocity='36'/>
                <note xml:id='note-L102F1S3' date='24120' pitchname='c' octave='3' accidentals='0' midi.pitch='48' duration='360' midi.onset='106.4145' midi.duration='0.16799999999999216' midi.velocity='36'/>
                <note xml:id='note-L103F1S1' date='24480' pitchname='a' octave='3' accidentals='0' midi.pitch='57' duration='360' midi.onset='106.6815' midi.duration='0.3149999999999977' midi.velocity='39'/>
                <note xml:id='note-L103F1S2' date='24480' pitchname='e' octave='3' accidentals='0' midi.pitch='52' duration='360' midi.onset='106.6905' midi.duration='0.3059999999999974' midi.velocity='39'/>
                <note xml:id='note-L103F1S3' date='24480' pitchname='c' octave='3' accidentals='0' midi.pitch='48' duration='360' midi.onset='106.6995' midi.duration='0.3165000000000049' midi.velocity='39'/>
                <note xml:id='note-L104F1S1' date='24840' pitchname='a' octave='3' accidentals='0' midi.pitch='57' duration='360' midi.onset='107.0865' midi.duration='0.2295000000000016' midi.velocity='43'/>
                <note xml:id='note-L104F1S2' date='24840' pitchname='e' octave='3' accidentals='0' midi.pitch='52' duration='360' midi.onset='107.0955' midi.duration='0.2115000000000009' midi.velocity='43'/>
                <note xml:id='note-L104F1S3' date='24840' pitchname='c' octave='3' accidentals='0' midi.pitch='48' duration='360' midi.onset='107.0955' midi.duration='0.22050000000000125' midi.velocity='43'/>
                <note xml:id='note-L105F1S1' date='25200' pitchname='a' octave='3' accidentals='0' midi.pitch='57' duration='360' midi.onset='107.4525' midi.duration='0.2805000000000035' midi.velocity='47'/>
                <note xml:id='note-L105F1S2' date='25200' pitchname='e' octave='3' accidentals='0' midi.pitch='52' duration='360' midi.onset='107.4615' midi.duration='0.2985000000000042' midi.velocity='47'/>
                <note xml:id='note-L105F1S3' date='25200' pitchname='c' octave='3' accidentals='0' midi.pitch='48' duration='360' midi.onset='107.4795' midi.duration='0.2715000000000032' midi.velocity='47'/>
                <note xml:id='note-L106F1S1' date='25560' pitchname='a' octave='3' accidentals='0' midi.pitch='57' duration='360' midi.onset='107.8155' midi.duration='0.1740000000000066' midi.velocity='44'/>
                <note xml:id='note-L106F1S2' date='25560' pitchname='e' octave='3' accidentals='0' midi.pitch='52' duration='360' midi.onset='107.8335' midi.duration='0.14849999999999852' midi.velocity='44'/>
                <note xml:id='note-L106F1S3' date='25560' pitchname='c' octave='3' accidentals='0' midi.pitch='48' duration='360' midi.onset='107.82600000000001' midi.duration='0.16499999999999204' midi.velocity='44'/>
                <note xml:id='note-L107F1S1' date='25920' pitchname='a' octave='3' accidentals='0' midi.pitch='57' duration='360' midi.onset='108.04650000000001' midi.duration='0.14999999999999147' midi.velocity='42'/>
                <note xml:id='note-L107F1S2' date='25920' pitchname='e' octave='3' accidentals='0' midi.pitch='52' duration='360' midi.onset='108.048' midi.duration='0.14849999999999852' midi.velocity='42'/>
                <note xml:id='note-L107F1S3' date='25920' pitchname='c' octave='3' accidentals='0' midi.pitch='48' duration='360' midi.onset='108.057' midi.duration='0.14849999999999852' midi.velocity='43'/>
                <note xml:id='note-L108F1S1' date='26280' pitchname='a' octave='3' accidentals='0' midi.pitch='57' duration='360' midi.onset='108.27' midi.duration='0.12150000000001171' midi.velocity='38'/>
                <note xml:id='note-L108F1S2' date='26280' pitchname='e' octave='3' accidentals='0' midi.pitch='52' duration='360' midi.onset='108.2535' midi.duration='0.14700000000000557' midi.velocity='38'/>
                <note xml:id='note-L108F1S3' date='26280' pitchname='c' octave='3' accidentals='0' midi.pitch='48' duration='360' midi.onset='108.2715' midi.duration='0.12000000000000455' midi.velocity='38'/>
                <note xml:id='note-L110F1S1' date='26640' pitchname='a' octave='3' accidentals='0' midi.pitch='57' duration='360' midi.onset='108.4635' midi.duration='0.19200000000000728' midi.velocity='39'/>
                <note xml:id='note-L110F1S2' date='26640' pitchname='e' octave='3' accidentals='0' midi.pitch='52' duration='360' midi.onset='108.456' midi.duration='0.21750000000000114' midi.velocity='38'/>
                <note xml:id='note-L110F1S3' date='26640' pitchname='b' octave='2' accidentals='0' midi.pitch='47' duration='360' midi.onset='108.4395' midi.duration='0.26250000000000284' midi.velocity='37'/>
                <note xml:id='note-L111F1S1' date='27000' pitchname='a' octave='3' accidentals='0' midi.pitch='57' duration='360' midi.onset='108.762' midi.duration='0.11400000000000432' midi.velocity='37'/>
                <note xml:id='note-L111F1S2' date='27000' pitchname='e' octave='3' accidentals='0' midi.pitch='52' duration='360' midi.onset='108.77250000000001' midi.duration='0.10349999999999682' midi.velocity='38'/>
                <note xml:id='note-L111F1S3' date='27000' pitchname='b' octave='2' accidentals='0' midi.pitch='47' duration='360' midi.onset='108.774' midi.duration='0.11249999999999716' midi.velocity='38'/>
                <note xml:id='note-L112F1S1' date='27360' pitchname='a' octave='3' accidentals='0' midi.pitch='57' duration='360' midi.onset='108.9735' midi.duration='0.15000000000000568' midi.velocity='36'/>
                <note xml:id='note-L112F1S2' date='27360' pitchname='d' octave='3' accidentals='1' midi.pitch='51' duration='360' midi.onset='108.9735' midi.duration='0.12300000000000466' midi.velocity='36'/>
                <note xml:id='note-L112F1S3' date='27360' pitchname='b' octave='2' accidentals='0' midi.pitch='47' duration='360' midi.onset='108.9495' midi.duration='0.15749999999999886' midi.velocity='37'/>
                <note xml:id='note-L113F1S1' date='27720' pitchname='a' octave='3' accidentals='0' midi.pitch='57' duration='360' midi.onset='109.1865' midi.duration='0.11250000000001137' midi.velocity='36'/>
                <note xml:id='note-L113F1S2' date='27720' pitchname='d' octave='3' accidentals='1' midi.pitch='51' duration='360' midi.onset='109.15050000000001' midi.duration='0.14099999999999113' midi.velocity='36'/>
                <note xml:id='note-L113F1S3' date='27720' pitchname='b' octave='2' accidentals='0' midi.pitch='47' duration='360' midi.onset='109.161' midi.duration='0.132000000000005' midi.velocity='36'/>
                <note xml:id='note-L114F1S1' date='28080' pitchname='a' octave='3' accidentals='0' midi.pitch='57' duration='360' midi.onset='109.3995' midi.duration='0.2009999999999934' midi.velocity='38'/>
                <note xml:id='note-L114F1S2' date='28080' pitchname='e' octave='3' accidentals='0' midi.pitch='52' duration='360' midi.onset='109.401' midi.duration='0.19950000000000045' midi.velocity='38'/>
                <note xml:id='note-L114F1S3' date='28080' pitchname='c' octave='3' accidentals='0' midi.pitch='48' duration='360' midi.onset='109.392' midi.duration='0.21000000000000796' midi.velocity='38'/>
                <note xml:id='note-L115F1S1' date='28440' pitchname='a' octave='3' accidentals='0' midi.pitch='57' duration='360' midi.onset='109.6755' midi.duration='0.1290000000000049' midi.velocity='35'/>
                <note xml:id='note-L115F1S2' date='28440' pitchname='e' octave='3' accidentals='0' midi.pitch='52' duration='360' midi.onset='109.6845' midi.duration='0.14100000000000534' midi.velocity='35'/>
                <note xml:id='note-L115F1S3' date='28440' pitchname='c' octave='3' accidentals='0' midi.pitch='48' duration='360' midi.onset='109.6755' midi.duration='0.15000000000000568' midi.velocity='35'/>
                <note xml:id='note-L116F1S1' date='28800' pitchname='a' octave='3' accidentals='0' midi.pitch='57' duration='360' midi.onset='110.0685' midi.duration='0.23700000000000898' midi.velocity='36'/>
                <note xml:id='note-L116F1S2' date='28800' pitchname='e' octave='3' accidentals='0' midi.pitch='52' duration='360' midi.onset='110.052' midi.duration='0.2459999999999951' midi.velocity='36'/>
                <note xml:id='note-L116F1S3' date='28800' pitchname='c' octave='3' accidentals='0' midi.pitch='48' duration='360' midi.onset='110.043' midi.duration='0.271499999999989' midi.velocity='36'/>
                <note xml:id='note-L117F1S1' date='29160' pitchname='a' octave='3' accidentals='0' midi.pitch='57' duration='360' midi.onset='110.379' midi.duration='0.17549999999999955' midi.velocity='33'/>
                <note xml:id='note-L117F1S2' date='29160' pitchname='e' octave='3' accidentals='0' midi.pitch='52' duration='360' midi.onset='110.3805' midi.duration='0.17549999999999955' midi.velocity='33'/>
                <note xml:id='note-L117F1S3' date='29160' pitchname='c' octave='3' accidentals='0' midi.pitch='48' duration='360' midi.onset='110.3895' midi.duration='0.1664999999999992' midi.velocity='33'/>
                <note xml:id='note-L119F1S1' date='29520' pitchname='a' octave='3' accidentals='0' midi.pitch='57' duration='360' midi.onset='110.64450000000001' midi.duration='0.2354999999999876' midi.velocity='34'/>
                <note xml:id='note-L119F1S2' date='29520' pitchname='d' octave='3' accidentals='1' midi.pitch='51' duration='360' midi.onset='110.62650000000001' midi.duration='0.2534999999999883' midi.velocity='34'/>
                <note xml:id='note-L119F1S3' date='29520' pitchname='b' octave='2' accidentals='0' midi.pitch='47' duration='360' midi.onset='110.628' midi.duration='0.26250000000000284' midi.velocity='34'/>
                <note xml:id='note-L120F1S1' date='29880' pitchname='a' octave='3' accidentals='0' midi.pitch='57' duration='360' midi.onset='110.9355' midi.duration='0.11249999999999716' midi.velocity='34'/>
                <note xml:id='note-L120F1S2' date='29880' pitchname='d' octave='3' accidentals='1' midi.pitch='51' duration='360' midi.onset='110.9445' midi.duration='0.10500000000000398' midi.velocity='34'/>
                <note xml:id='note-L120F1S3' date='29880' pitchname='b' octave='2' accidentals='0' midi.pitch='47' duration='360' midi.onset='110.946' midi.duration='0.11250000000001137' midi.velocity='34'/>
                <note xml:id='note-L121F1S1' date='30240' pitchname='a' octave='3' accidentals='0' midi.pitch='57' duration='360' midi.onset='111.1485' midi.duration='0.13800000000000523' midi.velocity='33'/>
                <note xml:id='note-L121F1S2' date='30240' pitchname='d' octave='3' accidentals='1' midi.pitch='51' duration='360' midi.onset='111.132' midi.duration='0.1454999999999984' midi.velocity='33'/>
                <note xml:id='note-L121F1S3' date='30240' pitchname='b' octave='2' accidentals='0' midi.pitch='47' duration='360' midi.onset='111.1425' midi.duration='0.13800000000000523' midi.velocity='33'/>
                <note xml:id='note-L122F1S1' date='30600' pitchname='a' octave='3' accidentals='0' midi.pitch='57' duration='360' midi.onset='111.3405' midi.duration='0.14849999999999852' midi.velocity='33'/>
                <note xml:id='note-L122F1S2' date='30600' pitchname='d' octave='3' accidentals='1' midi.pitch='51' duration='360' midi.onset='111.3315' midi.duration='0.1319999999999908' midi.velocity='33'/>
                <note xml:id='note-L122F1S3' date='30600' pitchname='b' octave='2' accidentals='0' midi.pitch='47' duration='360' midi.onset='111.342' midi.duration='0.13949999999999818' midi.velocity='33'/>
                <note xml:id='note-L123F1S1' date='30960' pitchname='a' octave='3' accidentals='0' midi.pitch='57' duration='360' midi.onset='111.561' midi.duration='0.23850000000000193' midi.velocity='36'/>
                <note xml:id='note-L123F1S2' date='30960' pitchname='e' octave='3' accidentals='0' midi.pitch='52' duration='360' midi.onset='111.5625' midi.duration='0.2295000000000016' midi.velocity='36'/>
                <note xml:id='note-L123F1S3' date='30960' pitchname='c' octave='3' accidentals='0' midi.pitch='48' duration='360' midi.onset='111.57000000000001' midi.duration='0.25799999999999557' midi.velocity='36'/>
                <note xml:id='note-L124F1S1' date='31320' pitchname='a' octave='3' accidentals='0' midi.pitch='57' duration='360' midi.onset='111.8475' midi.duration='0.14850000000001273' midi.velocity='33'/>
                <note xml:id='note-L124F1S2' date='31320' pitchname='e' octave='3' accidentals='0' midi.pitch='52' duration='360' midi.onset='111.8475' midi.duration='0.14850000000001273' midi.velocity='33'/>
                <note xml:id='note-L124F1S3' date='31320' pitchname='c' octave='3' accidentals='0' midi.pitch='48' duration='360' midi.onset='111.8565' midi.duration='0.15000000000000568' midi.velocity='33'/>
                <note xml:id='note-L127F1S1' date='31680' pitchname='a' octave='3' accidentals='0' midi.pitch='57' duration='360' midi.onset='112.158' midi.duration='0.2745000000000033' midi.velocity='35'/>
                <note xml:id='note-L127F1S2' date='31680' pitchname='e' octave='3' accidentals='0' midi.pitch='52' duration='360' midi.onset='112.13250000000001' midi.duration='0.29249999999998977' midi.velocity='35'/>
                <note xml:id='note-L127F1S3' date='31680' pitchname='c' octave='3' accidentals='0' midi.pitch='48' duration='360' midi.onset='112.13250000000001' midi.duration='0.29249999999998977' midi.velocity='35'/>
                <note xml:id='note-L128F1S1' date='32040' pitchname='a' octave='3' accidentals='0' midi.pitch='57' duration='360' midi.onset='112.524' midi.duration='0.1844999999999999' midi.velocity='33'/>
                <note xml:id='note-L128F1S2' date='32040' pitchname='e' octave='3' accidentals='0' midi.pitch='52' duration='360' midi.onset='112.50750000000001' midi.duration='0.20999999999999375' midi.velocity='33'/>
                <note xml:id='note-L128F1S3' date='32040' pitchname='c' octave='3' accidentals='0' midi.pitch='48' duration='360' midi.onset='112.50750000000001' midi.duration='0.20999999999999375' midi.velocity='33'/>
                <note xml:id='note-L131F1S1' date='32400' pitchname='a' octave='3' accidentals='0' midi.pitch='57' duration='720' midi.onset='112.9395' midi.duration='0.5745000000000005' midi.velocity='36'/>
                <note xml:id='note-L131F1S2' date='32400' pitchname='d' octave='3' accidentals='1' midi.pitch='51' duration='720' midi.onset='112.9395' midi.duration='0.5925000000000011' midi.velocity='36'/>
                <note xml:id='note-L131F1S3' date='32400' pitchname='b' octave='2' accidentals='0' midi.pitch='47' duration='720' midi.onset='112.93350000000001' midi.duration='0.619499999999988' midi.velocity='36'/>
                <note xml:id='note-L143F1S1' date='35280' pitchname='e' octave='4' accidentals='0' midi.pitch='64' duration='360' midi.onset='116.274' midi.duration='0.2639999999999958' midi.velocity='35'/>
                <note xml:id='note-L143F1S2' date='35280' pitchname='b' octave='3' accidentals='0' midi.pitch='59' duration='360' midi.onset='116.274' midi.duration='0.25499999999999545' midi.velocity='35'/>
                <note xml:id='note-L143F1S3' date='35280' pitchname='g' octave='3' accidentals='0' midi.pitch='55' duration='360' midi.onset='116.274' midi.duration='0.2639999999999958' midi.velocity='35'/>
                <note xml:id='note-L144F1S1' date='35640' pitchname='e' octave='4' accidentals='0' midi.pitch='64' duration='360' midi.onset='116.646' midi.duration='0.15000000000000568' midi.velocity='33'/>
                <note xml:id='note-L144F1S2' date='35640' pitchname='b' octave='3' accidentals='0' midi.pitch='59' duration='360' midi.onset='116.6205' midi.duration='0.17549999999999955' midi.velocity='33'/>
                <note xml:id='note-L144F1S3' date='35640' pitchname='g' octave='3' accidentals='0' midi.pitch='55' duration='360' midi.onset='116.62950000000001' midi.duration='0.16499999999999204' midi.velocity='33'/>
                <note xml:id='note-L145F1S1' date='36000' pitchname='e' octave='4' accidentals='0' midi.pitch='64' duration='360' midi.onset='116.9115' midi.duration='0.14849999999999852' midi.velocity='35'/>
                <note xml:id='note-L145F1S2' date='36000' pitchname='b' octave='3' accidentals='0' midi.pitch='59' duration='360' midi.onset='116.9205' midi.duration='0.12300000000000466' midi.velocity='35'/>
                <note xml:id='note-L145F1S3' date='36000' pitchname='g' octave='3' accidentals='0' midi.pitch='55' duration='360' midi.onset='116.9115' midi.duration='0.132000000000005' midi.velocity='35'/>
                <note xml:id='note-L146F1S1' date='36360' pitchname='e' octave='4' accidentals='0' midi.pitch='64' duration='360' midi.onset='117.1155' midi.duration='0.13050000000001205' midi.velocity='33'/>
                <note xml:id='note-L146F1S2' date='36360' pitchname='b' octave='3' accidentals='0' midi.pitch='59' duration='360' midi.onset='117.126' midi.duration='0.12300000000000466' midi.velocity='33'/>
                <note xml:id='note-L146F1S3' date='36360' pitchname='g' octave='3' accidentals='0' midi.pitch='55' duration='360' midi.onset='117.108' midi.duration='0.14999999999999147' midi.velocity='33'/>
                <note xml:id='note-L147F1S1' date='36720' pitchname='e' octave='4' accidentals='0' midi.pitch='64' duration='360' midi.onset='117.3555' midi.duration='0.13799999999999102' midi.velocity='33'/>
                <note xml:id='note-L147F1S2' date='36720' pitchname='b' octave='3' accidentals='0' midi.pitch='59' duration='360' midi.onset='117.357' midi.duration='0.11249999999999716' midi.velocity='33'/>
                <note xml:id='note-L147F1S3' date='36720' pitchname='g' octave='3' accidentals='0' midi.pitch='55' duration='360' midi.onset='117.357' midi.duration='0.12000000000000455' midi.velocity='33'/>
                <note xml:id='note-L148F1S1' date='37080' pitchname='e' octave='4' accidentals='0' midi.pitch='64' duration='360' midi.onset='117.58500000000001' midi.duration='0.10499999999998977' midi.velocity='33'/>
                <note xml:id='note-L148F1S2' date='37080' pitchname='b' octave='3' accidentals='0' midi.pitch='59' duration='360' midi.onset='117.5685' midi.duration='0.12300000000000466' midi.velocity='33'/>
                <note xml:id='note-L148F1S3' date='37080' pitchname='g' octave='3' accidentals='0' midi.pitch='55' duration='360' midi.onset='117.5685' midi.duration='0.1214999999999975' midi.velocity='33'/>
                <note xml:id='note-L149F1S1' date='37440' pitchname='e' octave='4' accidentals='0' midi.pitch='64' duration='360' midi.onset='117.825' midi.duration='0.14700000000000557' midi.velocity='34'/>
                <note xml:id='note-L149F1S2' date='37440' pitchname='b' octave='3' accidentals='0' midi.pitch='59' duration='360' midi.onset='117.8355' midi.duration='0.14700000000000557' midi.velocity='34'/>
                <note xml:id='note-L149F1S3' date='37440' pitchname='g' octave='3' accidentals='0' midi.pitch='55' duration='360' midi.onset='117.8355' midi.duration='0.1560000000000059' midi.velocity='34'/>
                <note xml:id='note-L150F1S1' date='37800' pitchname='e' octave='4' accidentals='0' midi.pitch='64' duration='360' midi.onset='118.071' midi.duration='0.11250000000001137' midi.velocity='33'/>
                <note xml:id='note-L150F1S2' date='37800' pitchname='b' octave='3' accidentals='0' midi.pitch='59' duration='360' midi.onset='118.071' midi.duration='0.13949999999999818' midi.velocity='33'/>
                <note xml:id='note-L150F1S3' date='37800' pitchname='g' octave='3' accidentals='0' midi.pitch='55' duration='360' midi.onset='118.0725' midi.duration='0.12899999999999068' midi.velocity='33'/>
                <note xml:id='note-L152F1S1' date='38160' pitchname='e' octave='4' accidentals='0' midi.pitch='64' duration='360' midi.onset='118.4175' midi.duration='0.2085000000000008' midi.velocity='35'/>
                <note xml:id='note-L152F1S2' date='38160' pitchname='a' octave='3' accidentals='0' midi.pitch='57' duration='360' midi.onset='118.4175' midi.duration='0.20999999999999375' midi.velocity='35'/>
                <note xml:id='note-L152F1S3' date='38160' pitchname='f' octave='3' accidentals='1' midi.pitch='54' duration='360' midi.onset='118.419' midi.duration='0.1905000000000001' midi.velocity='35'/>
                <note xml:id='note-L153F1S1' date='38520' pitchname='e' octave='4' accidentals='0' midi.pitch='64' duration='360' midi.onset='118.72800000000001' midi.duration='0.11999999999999034' midi.velocity='33'/>
                <note xml:id='note-L153F1S2' date='38520' pitchname='a' octave='3' accidentals='0' midi.pitch='57' duration='360' midi.onset='118.71000000000001' midi.duration='0.14849999999999852' midi.velocity='33'/>
                <note xml:id='note-L153F1S3' date='38520' pitchname='f' octave='3' accidentals='1' midi.pitch='54' duration='360' midi.onset='118.6845' midi.duration='0.1664999999999992' midi.velocity='33'/>
                <note xml:id='note-L154F1S1' date='38880' pitchname='e' octave='4' accidentals='0' midi.pitch='64' duration='360' midi.onset='118.923' midi.duration='0.13949999999999818' midi.velocity='33'/>
                <note xml:id='note-L154F1S2' date='38880' pitchname='a' octave='3' accidentals='0' midi.pitch='57' duration='360' midi.onset='118.932' midi.duration='0.12300000000000466' midi.velocity='33'/>
                <note xml:id='note-L154F1S3' date='38880' pitchname='f' octave='3' accidentals='1' midi.pitch='54' duration='360' midi.onset='118.92450000000001' midi.duration='0.1214999999999975' midi.velocity='33'/>
                <note xml:id='note-L155F1S1' date='39240' pitchname='e' octave='4' accidentals='0' midi.pitch='64' duration='360' midi.onset='119.1465' midi.duration='0.1110000000000042' midi.velocity='33'/>
                <note xml:id='note-L155F1S2' date='39240' pitchname='a' octave='3' accidentals='0' midi.pitch='57' duration='360' midi.onset='119.1375' midi.duration='0.10500000000000398' midi.velocity='33'/>
                <note xml:id='note-L155F1S3' date='39240' pitchname='f' octave='3' accidentals='1' midi.pitch='54' duration='360' midi.onset='119.13' midi.duration='0.13050000000001205' midi.velocity='33'/>
                <note xml:id='note-L156F1S1' date='39600' pitchname='e' octave='4' accidentals='-1' midi.pitch='63' duration='360' midi.onset='119.34' midi.duration='0.17549999999999955' midi.velocity='35'/>
                <note xml:id='note-L156F1S2' date='39600' pitchname='a' octave='3' accidentals='0' midi.pitch='57' duration='360' midi.onset='119.3415' midi.duration='0.17849999999999966' midi.velocity='35'/>
                <note xml:id='note-L156F1S3' date='39600' pitchname='f' octave='3' accidentals='0' midi.pitch='53' duration='360' midi.onset='119.334' midi.duration='0.20399999999999352' midi.velocity='35'/>
                <note xml:id='note-L157F1S1' date='39960' pitchname='e' octave='4' accidentals='-1' midi.pitch='63' duration='360' midi.onset='119.6025' midi.duration='0.1319999999999908' midi.velocity='33'/>
                <note xml:id='note-L157F1S2' date='39960' pitchname='a' octave='3' accidentals='0' midi.pitch='57' duration='360' midi.onset='119.604' midi.duration='0.1214999999999975' midi.velocity='33'/>
                <note xml:id='note-L157F1S3' date='39960' pitchname='f' octave='3' accidentals='0' midi.pitch='53' duration='360' midi.onset='119.613' midi.duration='0.11249999999999716' midi.velocity='33'/>
                <note xml:id='note-L158F1S1' date='40320' pitchname='e' octave='4' accidentals='-1' midi.pitch='63' duration='360' midi.onset='119.8665' midi.duration='0.14849999999999852' midi.velocity='35'/>
                <note xml:id='note-L158F1S2' date='40320' pitchname='a' octave='3' accidentals='0' midi.pitch='57' duration='360' midi.onset='119.8245' midi.duration='0.18300000000000693' midi.velocity='34'/>
                <note xml:id='note-L158F1S3' date='40320' pitchname='f' octave='3' accidentals='0' midi.pitch='53' duration='360' midi.onset='119.84100000000001' midi.duration='0.15749999999999886' midi.velocity='35'/>
                <note xml:id='note-L159F1S1' date='40680' pitchname='e' octave='4' accidentals='-1' midi.pitch='63' duration='360' midi.onset='120.1215' midi.duration='0.15000000000000568' midi.velocity='38'/>
                <note xml:id='note-L159F1S2' date='40680' pitchname='a' octave='3' accidentals='0' midi.pitch='57' duration='360' midi.onset='120.1155' midi.duration='0.1560000000000059' midi.velocity='38'/>
                <note xml:id='note-L159F1S3' date='40680' pitchname='f' octave='3' accidentals='0' midi.pitch='53' duration='360' midi.onset='120.1065' midi.duration='0.16500000000000625' midi.velocity='37'/>
                <note xml:id='note-L161F1S1' date='41040' pitchname='e' octave='4' accidentals='-1' midi.pitch='63' duration='360' midi.onset='120.41250000000001' midi.duration='0.2534999999999883' midi.velocity='41'/>
                <note xml:id='note-L161F1S2' date='41040' pitchname='a' octave='3' accidentals='-1' midi.pitch='56' duration='360' midi.onset='120.41550000000001' midi.duration='0.23399999999999466' midi.velocity='41'/>
                <note xml:id='note-L161F1S3' date='41040' pitchname='f' octave='3' accidentals='0' midi.pitch='53' duration='360' midi.onset='120.40650000000001' midi.duration='0.24449999999998795' midi.velocity='41'/>
                <note xml:id='note-L162F1S1' date='41400' pitchname='e' octave='4' accidentals='-1' midi.pitch='63' duration='360' midi.onset='120.7305' midi.duration='0.1319999999999908' midi.velocity='37'/>
                <note xml:id='note-L162F1S2' date='41400' pitchname='a' octave='3' accidentals='-1' midi.pitch='56' duration='360' midi.onset='120.7155' midi.duration='0.1214999999999975' midi.velocity='37'/>
                <note xml:id='note-L162F1S3' date='41400' pitchname='f' octave='3' accidentals='0' midi.pitch='53' duration='360' midi.onset='120.708' midi.duration='0.1290000000000049' midi.velocity='37'/>
                <note xml:id='note-L163F1S1' date='41760' pitchname='d' octave='4' accidentals='0' midi.pitch='62' duration='360' midi.onset='120.9375' midi.duration='0.12449999999999761' midi.velocity='35'/>
                <note xml:id='note-L163F1S2' date='41760' pitchname='a' octave='3' accidentals='-1' midi.pitch='56' duration='360' midi.onset='120.93' midi.duration='0.12299999999999045' midi.velocity='35'/>
                <note xml:id='note-L163F1S3' date='41760' pitchname='f' octave='3' accidentals='0' midi.pitch='53' duration='360' midi.onset='120.93900000000001' midi.duration='0.11399999999999011' midi.velocity='35'/>
                <note xml:id='note-L164F1S1' date='42120' pitchname='d' octave='4' accidentals='0' midi.pitch='62' duration='360' midi.onset='121.14150000000001' midi.duration='0.10499999999998977' midi.velocity='33'/>
                <note xml:id='note-L164F1S2' date='42120' pitchname='a' octave='3' accidentals='-1' midi.pitch='56' duration='360' midi.onset='121.134' midi.duration='0.11400000000000432' midi.velocity='33'/>
                <note xml:id='note-L164F1S3' date='42120' pitchname='f' octave='3' accidentals='0' midi.pitch='53' duration='360' midi.onset='121.143' midi.duration='0.10500000000000398' midi.velocity='33'/>
                <note xml:id='note-L165F1S1' date='42480' pitchname='d' octave='4' accidentals='0' midi.pitch='62' duration='360' midi.onset='121.3215' midi.duration='0.17549999999999955' midi.velocity='33'/>
                <note xml:id='note-L165F1S2' date='42480' pitchname='g' octave='3' accidentals='1' midi.pitch='56' duration='360' midi.onset='121.305' midi.duration='0.17399999999999238' midi.velocity='33'/>
                <note xml:id='note-L165F1S3' date='42480' pitchname='e' octave='3' accidentals='0' midi.pitch='52' duration='360' midi.onset='121.33200000000001' midi.duration='0.15749999999999886' midi.velocity='33'/>
                <note xml:id='note-L166F1S1' date='42840' pitchname='d' octave='4' accidentals='0' midi.pitch='62' duration='360' midi.onset='121.551' midi.duration='0.1110000000000042' midi.velocity='33'/>
                <note xml:id='note-L166F1S2' date='42840' pitchname='g' octave='3' accidentals='1' midi.pitch='56' duration='360' midi.onset='121.551' midi.duration='0.11249999999999716' midi.velocity='33'/>
                <note xml:id='note-L166F1S3' date='42840' pitchname='e' octave='3' accidentals='0' midi.pitch='52' duration='360' midi.onset='121.53450000000001' midi.duration='0.11249999999999716' midi.velocity='33'/>
                <note xml:id='note-L167F1S1' date='43200' pitchname='d' octave='4' accidentals='0' midi.pitch='62' duration='360' midi.onset='121.806' midi.duration='0.1664999999999992' midi.velocity='35'/>
                <note xml:id='note-L167F1S2' date='43200' pitchname='g' octave='3' accidentals='1' midi.pitch='56' duration='360' midi.onset='121.8075' midi.duration='0.14699999999999136' midi.velocity='35'/>
                <note xml:id='note-L167F1S3' date='43200' pitchname='e' octave='3' accidentals='0' midi.pitch='52' duration='360' midi.onset='121.7985' midi.duration='0.13949999999999818' midi.velocity='35'/>
                <note xml:id='note-L168F1S1' date='43560' pitchname='d' octave='4' accidentals='0' midi.pitch='62' duration='360' midi.onset='122.07300000000001' midi.duration='0.1844999999999999' midi.velocity='33'/>
                <note xml:id='note-L168F1S2' date='43560' pitchname='g' octave='3' accidentals='1' midi.pitch='56' duration='360' midi.onset='122.0655' midi.duration='0.1634999999999991' midi.velocity='34'/>
                <note xml:id='note-L168F1S3' date='43560' pitchname='e' octave='3' accidentals='0' midi.pitch='52' duration='360' midi.onset='122.0385' midi.duration='0.20250000000000057' midi.velocity='34'/>
                <note xml:id='note-L171F1S1' date='43920' pitchname='d' octave='4' accidentals='0' midi.pitch='62' duration='360' midi.onset='122.373' midi.duration='0.32849999999999113' midi.velocity='33'/>
                <note xml:id='note-L171F1S2' date='43920' pitchname='g' octave='3' accidentals='0' midi.pitch='55' duration='360' midi.onset='122.3745' midi.duration='0.3015000000000043' midi.velocity='33'/>
                <note xml:id='note-L171F1S3' date='43920' pitchname='e' octave='3' accidentals='0' midi.pitch='52' duration='360' midi.onset='122.3565' midi.duration='0.31050000000000466' midi.velocity='33'/>
                <note xml:id='note-L172F1S1' date='44280' pitchname='d' octave='4' accidentals='0' midi.pitch='61' duration='360' midi.onset='122.7315' midi.duration='0.15749999999999886' midi.velocity='33'/>
                <note xml:id='note-L172F1S2' date='44280' pitchname='g' octave='3' accidentals='0' midi.pitch='55' duration='360' midi.onset='122.742' midi.duration='0.13799999999999102' midi.velocity='33'/>
                <note xml:id='note-L172F1S3' date='44280' pitchname='e' octave='3' accidentals='0' midi.pitch='52' duration='360' midi.onset='122.733' midi.duration='0.15749999999999886' midi.velocity='33'/>
                <note xml:id='note-L175F1S1' date='44640' pitchname='c' octave='4' accidentals='1' midi.pitch='61' duration='360' midi.onset='123.5025' midi.duration='0.1290000000000049' midi.velocity='41'/>
                <note xml:id='note-L175F1S2' date='44640' pitchname='g' octave='3' accidentals='0' midi.pitch='55' duration='360' midi.onset='123.1245' midi.duration='0.2880000000000109' midi.velocity='37'/>
                <note xml:id='note-L175F1S3' date='44640' pitchname='e' octave='3' accidentals='0' midi.pitch='52' duration='360' midi.onset='123.1065' midi.duration='0.31500000000001194' midi.velocity='37'/>
                <note xml:id='note-L176F1S1' date='45000' pitchname='c' octave='4' accidentals='1' midi.pitch='70' duration='360' midi.onset='123.633' midi.duration='0.19350000000000023' midi.velocity='54'/>
                <note xml:id='note-L176F1S2' date='45000' pitchname='g' octave='3' accidentals='0' midi.pitch='undefined' duration='360'/>
                <note xml:id='note-L176F1S3' date='45000' pitchname='e' octave='3' accidentals='0' midi.pitch='undefined' duration='360'/>
                <note xml:id='note-L178F1S1' date='45360' pitchname='a' octave='3' accidentals='1' midi.pitch='58' duration='360' midi.onset='123.8655' midi.duration='0.29700000000001125' midi.velocity='45'/>
                <note xml:id='note-L178F1S2' date='45360' pitchname='e' octave='3' accidentals='0' midi.pitch='52' duration='360' midi.onset='123.8565' midi.duration='0.3060000000000116' midi.velocity='45'/>
                <note xml:id='note-L178F1S3' date='45360' pitchname='c' octave='3' accidentals='1' midi.pitch='49' duration='360' midi.onset='123.8745' midi.duration='0.2805000000000035' midi.velocity='45'/>
                <note xml:id='note-L179F1S1' date='45720' pitchname='a' octave='3' accidentals='1' midi.pitch='58' duration='360' midi.onset='124.236' midi.duration='0.16499999999999204' midi.velocity='42'/>
                <note xml:id='note-L179F1S2' date='45720' pitchname='e' octave='3' accidentals='0' midi.pitch='52' duration='360' midi.onset='124.2285' midi.duration='0.2190000000000083' midi.velocity='42'/>
                <note xml:id='note-L179F1S3' date='45720' pitchname='c' octave='3' accidentals='1' midi.pitch='49' duration='360' midi.onset='124.2285' midi.duration='0.27300000000001035' midi.velocity='42'/>
                <note xml:id='note-L180F1S1' date='46080' pitchname='a' octave='3' accidentals='0' midi.pitch='57' duration='360' midi.onset='124.6095' midi.duration='0.39150000000000773' midi.velocity='38'/>
                <note xml:id='note-L180F1S2' date='46080' pitchname='e' octave='3' accidentals='0' midi.pitch='52' duration='360' midi.onset='125.0835' midi.duration='0.13949999999999818' midi.velocity='41'/>
                <note xml:id='note-L180F1S3' date='46080' pitchname='c' octave='3' accidentals='0' midi.pitch='48' duration='360' midi.onset='125.0745' midi.duration='0.16800000000000637' midi.velocity='41'/>
                <note xml:id='note-L181F1S1' date='46440' pitchname='a' octave='3' accidentals='0' midi.pitch='57' duration='360' midi.onset='125.1015' midi.duration='0.14849999999999852' midi.velocity='42'/>
                <note xml:id='note-L181F1S2' date='46440' pitchname='e' octave='3' accidentals='0' midi.pitch='undefined' duration='360'/>
                <note xml:id='note-L181F1S3' date='46440' pitchname='c' octave='3' accidentals='0' midi.pitch='undefined' duration='360'/>
                <note xml:id='note-L186F1S1' date='46800' pitchname='b' octave='2' accidentals='0' midi.pitch='47' duration='360' midi.onset='125.5635' midi.duration='0.292500000000004' midi.velocity='55'/>
                <note xml:id='note-L186F1S2' date='46800' pitchname='b' octave='1' accidentals='0' midi.pitch='35' duration='360' midi.onset='125.529' midi.duration='0.319500000000005' midi.velocity='55'/>
                <note xml:id='note-L187F1S1' date='47160' pitchname='a' octave='4' accidentals='0' midi.pitch='undefined' duration='360'/>
                <note xml:id='note-L187F1S2' date='47160' pitchname='f' octave='4' accidentals='1' midi.pitch='66' duration='360' midi.onset='125.988' midi.duration='0.1634999999999991' midi.velocity='50'/>
                <note xml:id='note-L187F1S3' date='47160' pitchname='c' octave='4' accidentals='0' midi.pitch='60' duration='360' midi.onset='126.01350000000001' midi.duration='0.16499999999999204' midi.velocity='50'/>
                <note xml:id='note-L187F1S4' date='47160' pitchname='a' octave='3' accidentals='0' midi.pitch='57' duration='360' midi.onset='125.997' midi.duration='0.17249999999999943' midi.velocity='50'/>
                <note xml:id='note-L188F1S1' date='47520' pitchname='a' octave='4' accidentals='0' midi.pitch='undefined' duration='360'/>
                <note xml:id='note-L188F1S2' date='47520' pitchname='f' octave='4' accidentals='1' midi.pitch='66' duration='360' midi.onset='126.2685' midi.duration='0.17549999999999955' midi.velocity='47'/>
                <note xml:id='note-L188F1S3' date='47520' pitchname='c' octave='4' accidentals='0' midi.pitch='60' duration='360' midi.onset='126.2865' midi.duration='0.15899999999999181' midi.velocity='47'/>
                <note xml:id='note-L188F1S4' date='47520' pitchname='a' octave='3' accidentals='0' midi.pitch='57' duration='360' midi.onset='126.279' midi.duration='0.1664999999999992' midi.velocity='47'/>
                <note xml:id='note-L190F1S1' date='47880' pitchname='a' octave='4' accidentals='0' midi.pitch='undefined' duration='360'/>
                <note xml:id='note-L190F1S2' date='47880' pitchname='f' octave='4' accidentals='1' midi.pitch='66' duration='360' midi.onset='126.5175' midi.duration='0.15900000000000603' midi.velocity='45'/>
                <note xml:id='note-L190F1S3' date='47880' pitchname='c' octave='4' accidentals='0' midi.pitch='60' duration='360' midi.onset='126.5445' midi.duration='0.14100000000000534' midi.velocity='44'/>
                <note xml:id='note-L190F1S4' date='47880' pitchname='a' octave='3' accidentals='0' midi.pitch='57' duration='360' midi.onset='126.537' midi.duration='0.15749999999999886' midi.velocity='44'/>
                <note xml:id='note-L191F1S1' date='48240' pitchname='f' octave='4' accidentals='1' midi.pitch='66' duration='360' midi.onset='126.849' midi.duration='0.11249999999999716' midi.velocity='41'/>
                <note xml:id='note-L191F1S2' date='48240' pitchname='d' octave='4' accidentals='1' midi.pitch='63' duration='360' midi.onset='126.831' midi.duration='0.15749999999999886' midi.velocity='41'/>
                <note xml:id='note-L191F1S3' date='48240' pitchname='b' octave='3' accidentals='0' midi.pitch='59' duration='360' midi.onset='126.8415' midi.duration='0.1395000000000124' midi.velocity='41'/>
                <note xml:id='note-L191F1S4' date='48240' pitchname='g' octave='3' accidentals='0' midi.pitch='55' duration='360' midi.onset='126.80550000000001' midi.duration='0.1664999999999992' midi.velocity='42'/>
                <note xml:id='note-L192F1S1' date='48600' pitchname='e' octave='4' accidentals='0' midi.pitch='64' duration='360' midi.onset='127.1055' midi.duration='0.1559999999999917' midi.velocity='42'/>
                <note xml:id='note-L192F1S2' date='48600' pitchname='b' octave='3' accidentals='0' midi.pitch='59' duration='360' midi.onset='127.116' midi.duration='0.1634999999999991' midi.velocity='42'/>
                <note xml:id='note-L192F1S3' date='48600' pitchname='g' octave='3' accidentals='0' midi.pitch='55' duration='360' midi.onset='127.089' midi.duration='0.18300000000000693' midi.velocity='42'/>
                <note xml:id='note-L193F1S1' date='48960' pitchname='e' octave='4' accidentals='0' midi.pitch='64' duration='360' midi.onset='127.3785' midi.duration='0.25499999999999545' midi.velocity='45'/>
                <note xml:id='note-L193F1S2' date='48960' pitchname='b' octave='3' accidentals='0' midi.pitch='59' duration='360' midi.onset='127.38000000000001' midi.duration='0.22799999999999443' midi.velocity='45'/>
                <note xml:id='note-L193F1S3' date='48960' pitchname='g' octave='3' accidentals='0' midi.pitch='55' duration='360' midi.onset='127.389' midi.duration='0.23550000000000182' midi.velocity='45'/>
                <note xml:id='note-L194F1S1' date='49320' pitchname='e' octave='4' accidentals='0' midi.pitch='64' duration='360' midi.onset='127.71600000000001' midi.duration='0.19950000000000045' midi.velocity='42'/>
                <note xml:id='note-L194F1S2' date='49320' pitchname='b' octave='3' accidentals='0' midi.pitch='59' duration='360' midi.onset='127.70700000000001' midi.duration='0.22050000000000125' midi.velocity='42'/>
                <note xml:id='note-L194F1S3' date='49320' pitchname='g' octave='3' accidentals='0' midi.pitch='55' duration='360' midi.onset='127.7085' midi.duration='0.18300000000000693' midi.velocity='42'/>
                <note xml:id='note-L196F1S1' date='49680' pitchname='e' octave='4' accidentals='0' midi.pitch='64' duration='360' midi.onset='128.0175' midi.duration='0.3194999999999766' midi.velocity='39'/>
                <note xml:id='note-L196F1S2' date='49680' pitchname='c' octave='4' accidentals='0' midi.pitch='60' duration='360' midi.onset='128.0175' midi.duration='0.3194999999999766' midi.velocity='39'/>
                <note xml:id='note-L196F1S3' date='49680' pitchname='a' octave='3' accidentals='0' midi.pitch='57' duration='360' midi.onset='128.0085' midi.duration='0.3269999999999982' midi.velocity='39'/>
                <note xml:id='note-L197F1S1' date='50040' pitchname='e' octave='4' accidentals='0' midi.pitch='64' duration='360' midi.onset='128.412' midi.duration='0.15899999999999181' midi.velocity='36'/>
                <note xml:id='note-L197F1S2' date='50040' pitchname='c' octave='4' accidentals='0' midi.pitch='60' duration='360' midi.onset='128.4015' midi.duration='0.16949999999999932' midi.velocity='36'/>
                <note xml:id='note-L197F1S3' date='50040' pitchname='a' octave='3' accidentals='0' midi.pitch='57' duration='360' midi.onset='128.3925' midi.duration='0.16799999999997794' midi.velocity='36'/>
                <note xml:id='note-L201F1' date='50400' pitchname='a' octave='2' accidentals='0' midi.pitch='57' duration='360' midi.onset='128.7435' midi.duration='0.375' midi.velocity='40'/>
                <note xml:id='note-L203F1S1' date='50760' pitchname='c' octave='4' accidentals='0' midi.pitch='69' duration='360' midi.onset='129.261' midi.duration='0.28050000000001774' midi.velocity='65'/>
                <note xml:id='note-L203F1S2' date='50760' pitchname='f' octave='3' accidentals='1' midi.pitch='54' duration='360' midi.onset='129.2805' midi.duration='0.13050000000001205' midi.velocity='37'/>
                <note xml:id='note-L203F1S3' date='50760' pitchname='e' octave='3' accidentals='0' midi.pitch='52' duration='360' midi.onset='129.2805' midi.duration='0.12150000000002592' midi.velocity='37'/>
                <note xml:id='note-L206F1S1' date='51120' pitchname='b' octave='3' accidentals='0' midi.pitch='59' duration='360' midi.onset='129.5355' midi.duration='0.29849999999999' midi.velocity='36'/>
                <note xml:id='note-L206F1S2' date='51120' pitchname='e' octave='3' accidentals='0' midi.pitch='52' duration='360' midi.onset='129.5535' midi.duration='0.28949999999997544' midi.velocity='38'/>
                <note xml:id='note-L206F1S3' date='51120' pitchname='b' octave='2' accidentals='0' midi.pitch='47' duration='360' midi.onset='129.537' midi.duration='0.29849999999999' midi.velocity='36'/>
                <note xml:id='note-L207F1S1' date='51480' pitchname='b' octave='3' accidentals='0' midi.pitch='59' duration='360' midi.onset='129.9255' midi.duration='0.1740000000000066' midi.velocity='35'/>
                <note xml:id='note-L207F1S2' date='51480' pitchname='e' octave='3' accidentals='0' midi.pitch='52' duration='360' midi.onset='129.9165' midi.duration='0.18299999999999272' midi.velocity='35'/>
                <note xml:id='note-L207F1S3' date='51480' pitchname='b' octave='2' accidentals='0' midi.pitch='47' duration='360' midi.onset='129.9' midi.duration='0.25499999999999545' midi.velocity='35'/>
                <note xml:id='note-L208F1S1' date='51840' pitchname='a' octave='3' accidentals='0' midi.pitch='57' duration='360' midi.onset='130.2345' midi.duration='0.15899999999999181' midi.velocity='36'/>
                <note xml:id='note-L208F1S2' date='51840' pitchname='e' octave='3' accidentals='0' midi.pitch='52' duration='360' midi.onset='130.2345' midi.duration='0.15000000000000568' midi.velocity='36'/>
                <note xml:id='note-L208F1S3' date='51840' pitchname='c' octave='3' accidentals='0' midi.pitch='48' duration='360' midi.onset='130.2345' midi.duration='0.1769999999999925' midi.velocity='36'/>
                <note xml:id='note-L209F1S1' date='52200' pitchname='a' octave='3' accidentals='0' midi.pitch='57' duration='360' midi.onset='130.53' midi.duration='0.1740000000000066' midi.velocity='35'/>
                <note xml:id='note-L209F1S2' date='52200' pitchname='e' octave='3' accidentals='0' midi.pitch='52' duration='360' midi.onset='130.52100000000002' midi.duration='0.17549999999999955' midi.velocity='35'/>
                <note xml:id='note-L209F1S3' date='52200' pitchname='c' octave='3' accidentals='0' midi.pitch='48' duration='360' midi.onset='130.52100000000002' midi.duration='0.18449999999998568' midi.velocity='35'/>
                <note xml:id='note-L212F1S1' date='52560' pitchname='b' octave='3' accidentals='0' midi.pitch='59' duration='360' midi.onset='130.779' midi.duration='0.26550000000000296' midi.velocity='33'/>
                <note xml:id='note-L212F1S2' date='52560' pitchname='e' octave='3' accidentals='0' midi.pitch='52' duration='360' midi.onset='130.7805' midi.duration='0.2550000000000239' midi.velocity='33'/>
                <note xml:id='note-L212F1S3' date='52560' pitchname='b' octave='2' accidentals='0' midi.pitch='47' duration='360' midi.onset='130.7805' midi.duration='0.23850000000001614' midi.velocity='33'/>
                <note xml:id='note-L213F1S1' date='52920' pitchname='b' octave='3' accidentals='0' midi.pitch='59' duration='360' midi.onset='131.1' midi.duration='0.17549999999999955' midi.velocity='33'/>
                <note xml:id='note-L213F1S2' date='52920' pitchname='e' octave='3' accidentals='0' midi.pitch='52' duration='360' midi.onset='131.109' midi.duration='0.1560000000000059' midi.velocity='33'/>
                <note xml:id='note-L213F1S3' date='52920' pitchname='b' octave='2' accidentals='0' midi.pitch='47' duration='360' midi.onset='131.091' midi.duration='0.166499999999985' midi.velocity='33'/>
                <note xml:id='note-L214F1S1' date='53280' pitchname='b' octave='3' accidentals='0' midi.pitch='59' duration='360' midi.onset='131.3475' midi.duration='0.14100000000001955' midi.velocity='33'/>
                <note xml:id='note-L214F1S2' date='53280' pitchname='e' octave='3' accidentals='0' midi.pitch='52' duration='360' midi.onset='131.3295' midi.duration='0.132000000000005' midi.velocity='33'/>
                <note xml:id='note-L214F1S3' date='53280' pitchname='b' octave='2' accidentals='0' midi.pitch='47' duration='360' midi.onset='131.349' midi.duration='0.13050000000001205' midi.velocity='33'/>
                <note xml:id='note-L215F1S1' date='53640' pitchname='b' octave='3' accidentals='0' midi.pitch='59' duration='360' midi.onset='131.5515' midi.duration='0.13949999999999818' midi.velocity='33'/>
                <note xml:id='note-L215F1S2' date='53640' pitchname='e' octave='3' accidentals='0' midi.pitch='52' duration='360' midi.onset='131.553' midi.duration='0.13800000000000523' midi.velocity='33'/>
                <note xml:id='note-L215F1S3' date='53640' pitchname='b' octave='2' accidentals='0' midi.pitch='47' duration='360' midi.onset='131.562' midi.duration='0.1484999999999843' midi.velocity='33'/>
                <note xml:id='note-L216F1S1' date='54000' pitchname='a' octave='3' accidentals='0' midi.pitch='57' duration='360' midi.onset='131.8005' midi.duration='0.14699999999999136' midi.velocity='36'/>
                <note xml:id='note-L216F1S2' date='54000' pitchname='e' octave='3' accidentals='0' midi.pitch='52' duration='360' midi.onset='131.766' midi.duration='0.1740000000000066' midi.velocity='36'/>
                <note xml:id='note-L216F1S3' date='54000' pitchname='c' octave='3' accidentals='0' midi.pitch='48' duration='360' midi.onset='131.811' midi.duration='0.12899999999999068' midi.velocity='36'/>
                <note xml:id='note-L217F1S1' date='54360' pitchname='a' octave='3' accidentals='0' midi.pitch='57' duration='360' midi.onset='132.03900000000002' midi.duration='0.12899999999999068' midi.velocity='34'/>
                <note xml:id='note-L217F1S2' date='54360' pitchname='e' octave='3' accidentals='0' midi.pitch='52' duration='360' midi.onset='132.02100000000002' midi.duration='0.14099999999999113' midi.velocity='34'/>
                <note xml:id='note-L217F1S3' date='54360' pitchname='c' octave='3' accidentals='0' midi.pitch='48' duration='360' midi.onset='132.03900000000002' midi.duration='0.15899999999999181' midi.velocity='34'/>
                <note xml:id='note-L219F1S1' date='54720' pitchname='a' octave='3' accidentals='0' midi.pitch='57' duration='360' midi.onset='132.3495' midi.duration='0.22800000000000864' midi.velocity='33'/>
                <note xml:id='note-L219F1S2' date='54720' pitchname='e' octave='3' accidentals='0' midi.pitch='52' duration='360' midi.onset='132.333' midi.duration='0.2535000000000025' midi.velocity='33'/>
                <note xml:id='note-L219F1S3' date='54720' pitchname='c' octave='3' accidentals='0' midi.pitch='48' duration='360' midi.onset='132.36' midi.duration='0.2189999999999941' midi.velocity='33'/>
                <note xml:id='note-L220F1S1' date='55080' pitchname='a' octave='3' accidentals='0' midi.pitch='57' duration='360' midi.onset='132.642' midi.duration='0.17549999999999955' midi.velocity='33'/>
                <note xml:id='note-L220F1S2' date='55080' pitchname='e' octave='3' accidentals='0' midi.pitch='52' duration='360' midi.onset='132.651' midi.duration='0.18449999999998568' midi.velocity='33'/>
                <note xml:id='note-L220F1S3' date='55080' pitchname='c' octave='3' accidentals='0' midi.pitch='48' duration='360' midi.onset='132.6345' midi.duration='0.1740000000000066' midi.velocity='33'/>
                <note xml:id='note-L223F1S1' date='55440' pitchname='b' octave='3' accidentals='0' midi.pitch='59' duration='360' midi.onset='132.933' midi.duration='0.3149999999999977' midi.velocity='34'/>
                <note xml:id='note-L223F1S2' date='55440' pitchname='e' octave='3' accidentals='0' midi.pitch='52' duration='360' midi.onset='132.9345' midi.duration='0.3044999999999902' midi.velocity='34'/>
                <note xml:id='note-L223F1S3' date='55440' pitchname='b' octave='2' accidentals='0' midi.pitch='47' duration='360' midi.onset='132.936' midi.duration='0.29699999999999704' midi.velocity='34'/>
                <note xml:id='note-L224F1S1' date='55800' pitchname='b' octave='3' accidentals='0' midi.pitch='59' duration='360' midi.onset='133.3125' midi.duration='0.1740000000000066' midi.velocity='33'/>
                <note xml:id='note-L224F1S2' date='55800' pitchname='e' octave='3' accidentals='0' midi.pitch='52' duration='360' midi.onset='133.2945' midi.duration='0.2189999999999941' midi.velocity='33'/>
                <note xml:id='note-L224F1S3' date='55800' pitchname='b' octave='2' accidentals='0' midi.pitch='47' duration='360' midi.onset='133.296' midi.duration='0.20250000000001478' midi.velocity='33'/>
                <note xml:id='note-L225F1S1' date='56160' pitchname='b' octave='3' accidentals='0' midi.pitch='59' duration='360' midi.onset='133.614' midi.duration='0.1484999999999843' midi.velocity='33'/>
                <note xml:id='note-L225F1S2' date='56160' pitchname='e' octave='3' accidentals='0' midi.pitch='52' duration='360' midi.onset='133.578' midi.duration='0.15899999999999181' midi.velocity='33'/>
                <note xml:id='note-L225F1S3' date='56160' pitchname='b' octave='2' accidentals='0' midi.pitch='47' duration='360' midi.onset='133.5885' midi.duration='0.15749999999999886' midi.velocity='33'/>
                <note xml:id='note-L226F1S1' date='56520' pitchname='b' octave='3' accidentals='0' midi.pitch='59' duration='360' midi.onset='133.845' midi.duration='0.12299999999999045' midi.velocity='33'/>
                <note xml:id='note-L226F1S2' date='56520' pitchname='e' octave='3' accidentals='0' midi.pitch='52' duration='360' midi.onset='133.8195' midi.duration='0.15749999999999886' midi.velocity='33'/>
                <note xml:id='note-L226F1S3' date='56520' pitchname='b' octave='2' accidentals='0' midi.pitch='47' duration='360' midi.onset='133.8285' midi.duration='0.15000000000000568' midi.velocity='33'/>
                <note xml:id='note-L227F1S1' date='56880' pitchname='b' octave='3' accidentals='0' midi.pitch='59' duration='360' midi.onset='134.097' midi.duration='0.23099999999999454' midi.velocity='35'/>
                <note xml:id='note-L227F1S2' date='56880' pitchname='d' octave='3' accidentals='1' midi.pitch='51' duration='360' midi.onset='134.079' midi.duration='0.23099999999999454' midi.velocity='35'/>
                <note xml:id='note-L227F1S3' date='56880' pitchname='b' octave='2' accidentals='0' midi.pitch='47' duration='360' midi.onset='134.0625' midi.duration='0.2580000000000098' midi.velocity='36'/>
                <note xml:id='note-L228F1S1' date='57240' pitchname='b' octave='3' accidentals='0' midi.pitch='59' duration='360' midi.onset='134.4375' midi.duration='0.1740000000000066' midi.velocity='33'/>
                <note xml:id='note-L228F1S2' date='57240' pitchname='d' octave='3' accidentals='1' midi.pitch='51' duration='360' midi.onset='134.403' midi.duration='0.22800000000000864' midi.velocity='33'/>
                <note xml:id='note-L228F1S3' date='57240' pitchname='b' octave='2' accidentals='0' midi.pitch='47' duration='360' midi.onset='134.448' midi.duration='0.2009999999999934' midi.velocity='33'/>
                <note xml:id='note-L229F1S1' date='57600' pitchname='a' octave='3' accidentals='0' midi.pitch='57' duration='360' midi.onset='134.7195' midi.duration='0.27599999999998204' midi.velocity='35'/>
                <note xml:id='note-L229F1S2' date='57600' pitchname='d' octave='3' accidentals='1' midi.pitch='51' duration='360' midi.onset='134.7015' midi.duration='0.27899999999999636' midi.velocity='35'/>
                <note xml:id='note-L229F1S3' date='57600' pitchname='b' octave='2' accidentals='0' midi.pitch='47' duration='360' midi.onset='134.703' midi.duration='0.27000000000001023' midi.velocity='35'/>
                <note xml:id='note-L230F1S1' date='57960' pitchname='a' octave='3' accidentals='0' midi.pitch='57' duration='360' midi.onset='135.0885' midi.duration='0.18299999999999272' midi.velocity='33'/>
                <note xml:id='note-L230F1S2' date='57960' pitchname='d' octave='3' accidentals='1' midi.pitch='51' duration='360' midi.onset='135.054' midi.duration='0.26249999999998863' midi.velocity='33'/>
                <note xml:id='note-L230F1S3' date='57960' pitchname='b' octave='2' accidentals='0' midi.pitch='47' duration='360' midi.onset='135.0645' midi.duration='0.24449999999998795' midi.velocity='33'/>
                <note xml:id='note-L233F1S1' date='58320' pitchname='g' octave='3' accidentals='0' midi.pitch='55' duration='360' midi.onset='135.636' midi.duration='0.3015000000000043' midi.velocity='36'/>
                <note xml:id='note-L233F1S2' date='58320' pitchname='c' octave='3' accidentals='0' midi.pitch='48' duration='360' midi.onset='135.61950000000002' midi.duration='0.353999999999985' midi.velocity='34'/>
                <note xml:id='note-L234F1S1' date='58680' pitchname='g' octave='3' accidentals='0' midi.pitch='52' duration='360' midi.onset='136.047' midi.duration='0.2009999999999934' midi.velocity='33'/>
                <note xml:id='note-L234F1S2' date='58680' pitchname='c' octave='3' accidentals='0' midi.pitch='48' duration='360' midi.onset='136.038' midi.duration='0.2459999999999809' midi.velocity='33'/>
                <note xml:id='note-L235F1S1' date='59040' pitchname='g' octave='3' accidentals='0' midi.pitch='52' duration='360' midi.onset='136.3485' midi.duration='0.19050000000001432' midi.velocity='33'/>
                <note xml:id='note-L235F1S2' date='59040' pitchname='c' octave='3' accidentals='0' midi.pitch='48' duration='360' midi.onset='136.35750000000002' midi.duration='0.18149999999999977' midi.velocity='33'/>
                <note xml:id='note-L236F1S1' date='59400' pitchname='g' octave='3' accidentals='0' midi.pitch='55' duration='360' midi.onset='136.6215' midi.duration='0.14850000000001273' midi.velocity='33'/>
                <note xml:id='note-L236F1S2' date='59400' pitchname='c' octave='3' accidentals='0' midi.pitch='48' duration='360' midi.onset='136.6125' midi.duration='0.166499999999985' midi.velocity='33'/>
                <note xml:id='note-L237F1S1' date='59760' pitchname='b' octave='3' accidentals='-1' midi.pitch='55' duration='360' midi.onset='136.8885' midi.duration='0.20250000000001478' midi.velocity='35'/>
                <note xml:id='note-L237F1S2' date='59760' pitchname='c' octave='3' accidentals='0' midi.pitch='48' duration='360' midi.onset='136.8885' midi.duration='0.22050000000001546' midi.velocity='35'/>
                <note xml:id='note-L239F1S1' date='60120' pitchname='b' octave='3' accidentals='-1' midi.pitch='58' duration='360' midi.onset='137.25300000000001' midi.duration='0.20249999999998636' midi.velocity='33'/>
                <note xml:id='note-L239F1S2' date='60120' pitchname='c' octave='3' accidentals='0' midi.pitch='48' duration='360' midi.onset='137.244' midi.duration='0.21299999999999386' midi.velocity='33'/>
                <note xml:id='note-L240F1S1' date='60480' pitchname='a' octave='3' accidentals='0' midi.pitch='57' duration='360' midi.onset='137.5665' midi.duration='0.30750000000000455' midi.velocity='33'/>
                <note xml:id='note-L240F1S2' date='60480' pitchname='e' octave='3' accidentals='0' midi.pitch='52' duration='360' midi.onset='137.5665' midi.duration='0.2985000000000184' midi.velocity='33'/>
                <note xml:id='note-L240F1S3' date='60480' pitchname='c' octave='3' accidentals='0' midi.pitch='48' duration='360' midi.onset='137.5665' midi.duration='0.3090000000000259' midi.velocity='33'/>
                <note xml:id='note-L241F1S1' date='60840' pitchname='a' octave='3' accidentals='0' midi.pitch='57' duration='360' midi.onset='137.9595' midi.duration='0.21750000000000114' midi.velocity='33'/>
                <note xml:id='note-L241F1S2' date='60840' pitchname='e' octave='3' accidentals='0' midi.pitch='52' duration='360' midi.onset='137.9685' midi.duration='0.21750000000000114' midi.velocity='33'/>
                <note xml:id='note-L241F1S3' date='60840' pitchname='c' octave='3' accidentals='0' midi.pitch='48' duration='360' midi.onset='137.976' midi.duration='0.23699999999999477' midi.velocity='33'/>
                <note xml:id='note-L243F1S1' date='61200' pitchname='a' octave='3' accidentals='0' midi.pitch='57' duration='360' midi.onset='138.3285' midi.duration='0.3060000000000116' midi.velocity='33'/>
                <note xml:id='note-L243F1S2' date='61200' pitchname='e' octave='3' accidentals='0' midi.pitch='52' duration='360' midi.onset='138.3285' midi.duration='0.28950000000000387' midi.velocity='33'/>
                <note xml:id='note-L243F1S3' date='61200' pitchname='b' octave='2' accidentals='0' midi.pitch='47' duration='360' midi.onset='138.339' midi.duration='0.2880000000000109' midi.velocity='33'/>
                <note xml:id='note-L244F1S1' date='61560' pitchname='a' octave='3' accidentals='0' midi.pitch='57' duration='360' midi.onset='138.708' midi.duration='0.18299999999999272' midi.velocity='37'/>
                <note xml:id='note-L244F1S2' date='61560' pitchname='e' octave='3' accidentals='0' midi.pitch='52' duration='360' midi.onset='138.717' midi.duration='0.15749999999999886' midi.velocity='38'/>
                <note xml:id='note-L244F1S3' date='61560' pitchname='b' octave='2' accidentals='0' midi.pitch='47' duration='360' midi.onset='138.7275' midi.duration='0.19200000000000728' midi.velocity='38'/>
                <note xml:id='note-L245F1S1' date='61920' pitchname='g' octave='3' accidentals='1' midi.pitch='56' duration='360' midi.onset='138.981' midi.duration='0.1740000000000066' midi.velocity='35'/>
                <note xml:id='note-L245F1S2' date='61920' pitchname='e' octave='3' accidentals='0' midi.pitch='52' duration='360' midi.onset='138.9915' midi.duration='0.1560000000000059' midi.velocity='35'/>
                <note xml:id='note-L245F1S3' date='61920' pitchname='b' octave='2' accidentals='0' midi.pitch='47' duration='360' midi.onset='138.984' midi.duration='0.17249999999998522' midi.velocity='35'/>
                <note xml:id='note-L246F1S1' date='62280' pitchname='g' octave='3' accidentals='1' midi.pitch='56' duration='360' midi.onset='139.2465' midi.duration='0.1214999999999975' midi.velocity='33'/>
                <note xml:id='note-L246F1S2' date='62280' pitchname='e' octave='3' accidentals='0' midi.pitch='52' duration='360' midi.onset='139.239' midi.duration='0.166499999999985' midi.velocity='33'/>
                <note xml:id='note-L246F1S3' date='62280' pitchname='b' octave='2' accidentals='0' midi.pitch='47' duration='360' midi.onset='139.239' midi.duration='0.16800000000000637' midi.velocity='33'/>
                <note xml:id='note-L247F1S1' date='62640' pitchname='g' octave='3' accidentals='0' midi.pitch='55' duration='360' midi.onset='139.5255' midi.duration='0.27299999999999613' midi.velocity='35'/>
                <note xml:id='note-L247F1S2' date='62640' pitchname='e' octave='3' accidentals='0' midi.pitch='52' duration='360' midi.onset='139.51500000000001' midi.duration='0.2744999999999891' midi.velocity='35'/>
                <note xml:id='note-L247F1S3' date='62640' pitchname='b' octave='2' accidentals='0' midi.pitch='47' duration='360' midi.onset='139.52700000000002' midi.duration='0.3359999999999843' midi.velocity='35'/>
                <note xml:id='note-L248F1S1' date='63000' pitchname='g' octave='3' accidentals='0' midi.pitch='55' duration='360' midi.onset='140.415' midi.duration='0.3780000000000143' midi.velocity='33'/>
                <note xml:id='note-L248F1S2' date='63000' pitchname='e' octave='3' accidentals='0' midi.pitch='52' duration='360' midi.onset='139.9635' midi.duration='0.18299999999999272' midi.velocity='33'/>
                <note xml:id='note-L248F1S3' date='63000' pitchname='b' octave='2' accidentals='0' midi.pitch='47' duration='360' midi.onset='139.9455' midi.duration='0.29999999999998295' midi.velocity='33'/>
                <note xml:id='note-L249F1S1' date='63360' pitchname='g' octave='3' accidentals='0' midi.pitch='undefined' duration='360'/>
                <note xml:id='note-L249F1S2' date='63360' pitchname='e' octave='3' accidentals='0' midi.pitch='undefined' duration='360'/>
                <note xml:id='note-L249F1S3' date='63360' pitchname='b' octave='2' accidentals='0' midi.pitch='undefined' duration='360'/>
                <note xml:id='note-L250F1S1' date='63720' pitchname='g' octave='3' accidentals='0' midi.pitch='55' duration='360' midi.onset='140.988' midi.duration='0.16650000000001342' midi.velocity='33'/>
                <note xml:id='note-L250F1S2' date='63720' pitchname='e' octave='3' accidentals='0' midi.pitch='52' duration='360' midi.onset='140.988' midi.duration='0.16650000000001342' midi.velocity='33'/>
                <note xml:id='note-L250F1S3' date='63720' pitchname='b' octave='2' accidentals='0' midi.pitch='47' duration='360' midi.onset='140.9985' midi.duration='0.23849999999998772' midi.velocity='33'/>
                <note xml:id='note-L252F1S1' date='64080' pitchname='g' octave='3' accidentals='0' midi.pitch='55' duration='1440' midi.onset='141.8505' midi.duration='0.8009999999999877' midi.velocity='33'/>
                <note xml:id='note-L252F1S2' date='64080' pitchname='c' octave='3' accidentals='0' midi.pitch='49' duration='1440' midi.onset='141.852' midi.duration='0.7994999999999948' midi.velocity='33'/>
                <note xml:id='note-L252F1S3' date='64080' pitchname='b' octave='2' accidentals='-1' midi.pitch='46' duration='1440' midi.onset='141.852' midi.duration='0.8100000000000023' midi.velocity='33'/>
                <note xml:id='note-L256F1S1' date='66960' pitchname='b' octave='2' accidentals='0' midi.pitch='47' duration='1440' midi.onset='144.2355' midi.duration='0.4935000000000116' midi.velocity='33'/>
                <note xml:id='note-L256F1S2' date='66960' pitchname='b' octave='1' accidentals='0' midi.pitch='35' duration='1440' midi.onset='143.9715' midi.duration='0.616500000000002' midi.velocity='33'/>
                <note xml:id='note-L257F1S1' date='68400' pitchname='b' octave='2' accidentals='0' midi.pitch='47' duration='1440' midi.onset='146.6595' midi.duration='0.5114999999999839' midi.velocity='33'/>
                <note xml:id='note-L257F1S2' date='68400' pitchname='f' octave='2' accidentals='1' midi.pitch='42' duration='1440' midi.onset='146.4105' midi.duration='0.6539999999999964' midi.velocity='33'/>
                <note xml:id='note-L257F1S3' date='68400' pitchname='b' octave='1' accidentals='0' midi.pitch='undefined' duration='1440'/>
                <note xml:id='note-L259F1S1' date='69840' pitchname='e' octave='2' accidentals='0' midi.pitch='40' duration='2880' midi.onset='149.5365' midi.duration='0.606000000000023' midi.velocity='33'/>
                <note xml:id='note-L259F1S2' date='69840' pitchname='e' octave='1' accidentals='0' midi.pitch='28' duration='2880' midi.onset='149.04' midi.duration='0.9885000000000161' midi.velocity='36'/>
            </score>
        </dated>
    </part>
</msm>
